<svg width="35" height="35" viewBox="0 0 35 35" fill="none" xmlns="http://www.w3.org/2000/svg">
<path d="M18.6633 10.2803H15.8689V15.8691H10.2802V18.6634H15.8689V24.2521H18.6633V18.6634H24.252V15.8691H18.6633V10.2803ZM17.2661 3.29443C9.55368 3.29443 3.29431 9.5538 3.29431 17.2662C3.29431 24.9787 9.55368 31.238 17.2661 31.238C24.9785 31.238 31.2379 24.9787 31.2379 17.2662C31.2379 9.5538 24.9785 3.29443 17.2661 3.29443ZM17.2661 28.4437C11.1045 28.4437 6.08867 23.4278 6.08867 17.2662C6.08867 11.1047 11.1045 6.08879 17.2661 6.08879C23.4277 6.08879 28.4436 11.1047 28.4436 17.2662C28.4436 23.4278 23.4277 28.4437 17.2661 28.4437Z" fill="white"/>
</svg>
