<svg width="216" height="122" viewBox="0 0 216 122" fill="none" xmlns="http://www.w3.org/2000/svg">
<path d="M203.562 79.2778C200.934 73.3393 192.173 63.9566 178.156 73.9332C160.636 86.4039 150.999 79.2778 136.106 79.2778C131.866 76.8407 123.9 72.8648 115.957 70.2648M203.562 79.2778C203.27 81.9502 198.481 87.2951 181.661 87.2951C172.346 88.4431 154.854 88.4361 137.858 97.8672M203.562 79.2778C205.386 78.981 207.283 78.3874 211.663 79.2778C215.099 79.9763 207.722 80.7625 203.562 79.2778ZM51.3468 67.698C45.2232 53.7755 46.389 47.9122 42.5864 42.7568C37.3301 35.6306 11.0487 23.1597 17.181 23.1597C23.3133 23.1597 34.4848 16.9244 55.5099 23.1597C61.5177 24.9414 73.0041 26.9972 80.9154 40.5243M51.3468 67.698C53.6876 73.02 57.4789 75.7151 60.9832 78.3874C64.4875 81.0597 68.6926 81.0597 71.4959 81.0597M51.3468 67.698C47.4651 69.4794 39.7412 79.2778 34.4848 87.2951C30.2797 93.7089 0.535877 87.2951 3.16414 92.6397C5.79241 97.9843 7.32733 96.2027 24.1891 104.22C26.8733 105.496 30.1707 107.056 33.9901 108.673M115.957 70.2648C111.32 68.7469 106.691 67.698 102.816 67.698C96.1563 67.698 89.046 54.4264 80.9154 40.5243M115.957 70.2648C120.338 62.5801 126.47 42.7568 115.957 24.9414C112.229 18.6238 109.493 13.6503 107.513 9.86221C105.916 6.80568 100.579 7.13563 99.4057 10.3784C95.4882 21.2035 88.603 37.0729 80.9154 40.5243M33.9901 108.673C53.2562 116.835 85.8048 126.476 119.931 108.673C97.2845 81.2224 53.201 97.2355 33.9901 108.673Z" stroke="#2B918F" stroke-width="5.64508" stroke-linecap="round" stroke-linejoin="round"/>
<path d="M131.201 103.429C131.175 104.956 129.912 106.201 128.448 106.141C127.049 106.086 125.827 104.814 125.811 103.399C125.795 101.9 127.036 100.654 128.54 100.657C130.063 100.66 131.231 101.872 131.204 103.429H131.201Z" fill="#319795"/>
<rect x="188.81" y="58.7532" width="3.85945" height="9.42273" rx="1.92972" fill="#319795"/>
<path d="M195.202 55.3869C195.202 57.9087 193.199 59.8992 190.795 59.8992C188.391 59.8992 186.388 57.9087 186.388 55.3869C186.388 52.8652 188.391 50.8746 190.795 50.8746C193.199 50.8746 195.202 52.8652 195.202 55.3869Z" stroke="#319795" stroke-width="3.76339"/>
<path d="M196.669 77.563C196.651 78.5959 195.782 79.4382 194.775 79.3975C193.813 79.3605 192.972 78.4997 192.961 77.5426C192.95 76.5282 193.804 75.6859 194.838 75.6877C195.886 75.6896 196.69 76.5097 196.671 77.563H196.669Z" fill="#319795"/>
</svg>
