<svg width="351" height="62" viewBox="0 0 351 62" fill="none" xmlns="http://www.w3.org/2000/svg">
<g filter="url(#filter0_dd_30_11543)">
<rect x="3" y="3" width="345" height="54" rx="10" fill="white"/>
<rect x="45" y="3" width="261" height="54" rx="10" fill="white"/>
<rect width="24" height="24" transform="translate(60 18)" fill="white"/>
<path fill-rule="evenodd" clip-rule="evenodd" d="M83.04 30.2614C83.04 29.4459 82.9668 28.6618 82.8309 27.9091H72V32.3575H78.1891C77.9225 33.795 77.1123 35.013 75.8943 35.8284V38.7139H79.6109C81.7855 36.7118 83.04 33.7636 83.04 30.2614Z" fill="#4285F4"/>
<path fill-rule="evenodd" clip-rule="evenodd" d="M72 41.4998C75.105 41.4998 77.7081 40.4701 79.6109 38.7137L75.8943 35.8282C74.8645 36.5182 73.5472 36.926 72 36.926C69.0047 36.926 66.4695 34.903 65.5652 32.1848H61.7231V35.1644C63.6154 38.9228 67.5045 41.4998 72 41.4998Z" fill="#34A853"/>
<path fill-rule="evenodd" clip-rule="evenodd" d="M65.5652 32.1851C65.3352 31.4951 65.2045 30.758 65.2045 30.0001C65.2045 29.2421 65.3352 28.5051 65.5652 27.8151V24.8355H61.7232C60.9443 26.388 60.5 28.1444 60.5 30.0001C60.5 31.8557 60.9443 33.6121 61.7232 35.1646L65.5652 32.1851Z" fill="#FBBC05"/>
<path fill-rule="evenodd" clip-rule="evenodd" d="M72 23.0739C73.6884 23.0739 75.2043 23.6541 76.3961 24.7936L79.6945 21.4952C77.7029 19.6395 75.0997 18.5 72 18.5C67.5045 18.5 63.6154 21.077 61.7231 24.8355L65.5652 27.815C66.4695 25.0968 69.0047 23.0739 72 23.0739Z" fill="#EA4335"/>
<path d="M111.295 31.3711C111.152 32.888 110.592 34.0729 109.615 34.9258C108.639 35.7721 107.34 36.1953 105.719 36.1953C104.586 36.1953 103.587 35.9284 102.721 35.3945C101.861 34.8542 101.197 34.0892 100.729 33.0996C100.26 32.11 100.016 30.9609 99.9961 29.6523V28.3242C99.9961 26.9831 100.234 25.8014 100.709 24.7793C101.184 23.7572 101.865 22.9694 102.75 22.416C103.642 21.8626 104.671 21.5859 105.836 21.5859C107.405 21.5859 108.668 22.0124 109.625 22.8652C110.582 23.7181 111.139 24.9225 111.295 26.4785H108.834C108.717 25.4564 108.417 24.7207 107.936 24.2715C107.46 23.8158 106.76 23.5879 105.836 23.5879C104.762 23.5879 103.935 23.9818 103.355 24.7695C102.783 25.5508 102.49 26.6999 102.477 28.2168V29.4766C102.477 31.013 102.75 32.1849 103.297 32.9922C103.85 33.7995 104.658 34.2031 105.719 34.2031C106.689 34.2031 107.418 33.985 107.906 33.5488C108.395 33.1126 108.704 32.3867 108.834 31.3711H111.295ZM112.838 30.6191C112.838 29.584 113.043 28.653 113.453 27.8262C113.863 26.9928 114.439 26.3548 115.182 25.9121C115.924 25.4629 116.777 25.2383 117.74 25.2383C119.166 25.2383 120.322 25.6973 121.207 26.6152C122.099 27.5332 122.581 28.7507 122.652 30.2676L122.662 30.8242C122.662 31.8659 122.46 32.7969 122.057 33.6172C121.66 34.4375 121.087 35.0723 120.338 35.5215C119.596 35.9707 118.736 36.1953 117.76 36.1953C116.269 36.1953 115.074 35.7005 114.176 34.7109C113.284 33.7148 112.838 32.39 112.838 30.7363V30.6191ZM115.211 30.8242C115.211 31.9115 115.436 32.7643 115.885 33.3828C116.334 33.9948 116.959 34.3008 117.76 34.3008C118.561 34.3008 119.182 33.9883 119.625 33.3633C120.074 32.7383 120.299 31.8236 120.299 30.6191C120.299 29.5514 120.068 28.7051 119.605 28.0801C119.15 27.4551 118.528 27.1426 117.74 27.1426C116.965 27.1426 116.35 27.4518 115.895 28.0703C115.439 28.6823 115.211 29.6003 115.211 30.8242ZM126.871 25.4336L126.939 26.6543C127.721 25.7103 128.746 25.2383 130.016 25.2383C132.216 25.2383 133.336 26.498 133.375 29.0176V36H131.002V29.1543C131.002 28.4837 130.855 27.9889 130.562 27.6699C130.276 27.3444 129.804 27.1816 129.146 27.1816C128.189 27.1816 127.477 27.6146 127.008 28.4805V36H124.635V25.4336H126.871ZM138.775 22.8652V25.4336H140.641V27.1914H138.775V33.0898C138.775 33.4935 138.854 33.7865 139.01 33.9688C139.173 34.1445 139.459 34.2324 139.869 34.2324C140.143 34.2324 140.419 34.1999 140.699 34.1348V35.9707C140.159 36.1204 139.638 36.1953 139.137 36.1953C137.314 36.1953 136.402 35.1895 136.402 33.1777V27.1914H134.664V25.4336H136.402V22.8652H138.775ZM144.986 36H142.613V25.4336H144.986V36ZM142.467 22.6895C142.467 22.3249 142.581 22.0221 142.809 21.7812C143.043 21.5404 143.375 21.4199 143.805 21.4199C144.234 21.4199 144.566 21.5404 144.801 21.7812C145.035 22.0221 145.152 22.3249 145.152 22.6895C145.152 23.0475 145.035 23.347 144.801 23.5879C144.566 23.8223 144.234 23.9395 143.805 23.9395C143.375 23.9395 143.043 23.8223 142.809 23.5879C142.581 23.347 142.467 23.0475 142.467 22.6895ZM149.781 25.4336L149.85 26.6543C150.631 25.7103 151.656 25.2383 152.926 25.2383C155.126 25.2383 156.246 26.498 156.285 29.0176V36H153.912V29.1543C153.912 28.4837 153.766 27.9889 153.473 27.6699C153.186 27.3444 152.714 27.1816 152.057 27.1816C151.1 27.1816 150.387 27.6146 149.918 28.4805V36H147.545V25.4336H149.781ZM165.113 34.9648C164.417 35.7852 163.427 36.1953 162.145 36.1953C160.999 36.1953 160.13 35.86 159.537 35.1895C158.951 34.5189 158.658 33.5488 158.658 32.2793V25.4336H161.031V32.25C161.031 33.5911 161.588 34.2617 162.701 34.2617C163.854 34.2617 164.632 33.8483 165.035 33.0215V25.4336H167.408V36H165.172L165.113 34.9648ZM174.479 36.1953C172.975 36.1953 171.754 35.7233 170.816 34.7793C169.885 33.8288 169.42 32.5658 169.42 30.9902V30.6973C169.42 29.6426 169.622 28.7018 170.025 27.875C170.436 27.0417 171.008 26.3939 171.744 25.9316C172.48 25.4694 173.3 25.2383 174.205 25.2383C175.644 25.2383 176.754 25.6973 177.535 26.6152C178.323 27.5332 178.717 28.832 178.717 30.5117V31.4688H171.812C171.884 32.3411 172.174 33.0312 172.682 33.5391C173.196 34.0469 173.84 34.3008 174.615 34.3008C175.702 34.3008 176.588 33.8613 177.271 32.9824L178.551 34.2031C178.128 34.8346 177.561 35.3262 176.852 35.6777C176.148 36.0228 175.357 36.1953 174.479 36.1953ZM174.195 27.1426C173.544 27.1426 173.017 27.3704 172.613 27.8262C172.216 28.2819 171.962 28.9167 171.852 29.7305H176.373V29.5547C176.321 28.7604 176.109 28.1615 175.738 27.7578C175.367 27.3477 174.853 27.1426 174.195 27.1426ZM194.83 32.7285L196.51 25.4336H198.824L195.943 36H193.99L191.725 28.7441L189.498 36H187.545L184.654 25.4336H186.969L188.678 32.6504L190.846 25.4336H192.633L194.83 32.7285ZM202.936 36H200.562V25.4336H202.936V36ZM200.416 22.6895C200.416 22.3249 200.53 22.0221 200.758 21.7812C200.992 21.5404 201.324 21.4199 201.754 21.4199C202.184 21.4199 202.516 21.5404 202.75 21.7812C202.984 22.0221 203.102 22.3249 203.102 22.6895C203.102 23.0475 202.984 23.347 202.75 23.5879C202.516 23.8223 202.184 23.9395 201.754 23.9395C201.324 23.9395 200.992 23.8223 200.758 23.5879C200.53 23.347 200.416 23.0475 200.416 22.6895ZM208.502 22.8652V25.4336H210.367V27.1914H208.502V33.0898C208.502 33.4935 208.58 33.7865 208.736 33.9688C208.899 34.1445 209.186 34.2324 209.596 34.2324C209.869 34.2324 210.146 34.1999 210.426 34.1348V35.9707C209.885 36.1204 209.365 36.1953 208.863 36.1953C207.04 36.1953 206.129 35.1895 206.129 33.1777V27.1914H204.391V25.4336H206.129V22.8652H208.502ZM214.527 26.5859C215.302 25.6875 216.282 25.2383 217.467 25.2383C219.719 25.2383 220.862 26.5241 220.895 29.0957V36H218.521V29.1836C218.521 28.4544 218.362 27.9401 218.043 27.6406C217.73 27.3346 217.268 27.1816 216.656 27.1816C215.706 27.1816 214.996 27.6048 214.527 28.4512V36H212.154V21H214.527V26.5859ZM239.41 34.1543C238.896 34.8249 238.183 35.3327 237.271 35.6777C236.36 36.0228 235.325 36.1953 234.166 36.1953C232.975 36.1953 231.92 35.9251 231.002 35.3848C230.084 34.8444 229.374 34.0729 228.873 33.0703C228.378 32.0612 228.121 30.8861 228.102 29.5449V28.4316C228.102 26.2832 228.616 24.6068 229.645 23.4023C230.673 22.1914 232.109 21.5859 233.951 21.5859C235.533 21.5859 236.79 21.9766 237.721 22.7578C238.652 23.5391 239.212 24.6654 239.4 26.1367H236.979C236.705 24.4245 235.712 23.5684 234 23.5684C232.893 23.5684 232.05 23.9688 231.471 24.7695C230.898 25.5638 230.602 26.7324 230.582 28.2754V29.3691C230.582 30.9056 230.904 32.1003 231.549 32.9531C232.2 33.7995 233.102 34.2227 234.254 34.2227C235.517 34.2227 236.415 33.9362 236.949 33.3633V30.5801H234.02V28.7051H239.41V34.1543ZM241.451 30.6191C241.451 29.584 241.656 28.653 242.066 27.8262C242.477 26.9928 243.053 26.3548 243.795 25.9121C244.537 25.4629 245.39 25.2383 246.354 25.2383C247.779 25.2383 248.935 25.6973 249.82 26.6152C250.712 27.5332 251.194 28.7507 251.266 30.2676L251.275 30.8242C251.275 31.8659 251.074 32.7969 250.67 33.6172C250.273 34.4375 249.7 35.0723 248.951 35.5215C248.209 35.9707 247.35 36.1953 246.373 36.1953C244.882 36.1953 243.688 35.7005 242.789 34.7109C241.897 33.7148 241.451 32.39 241.451 30.7363V30.6191ZM243.824 30.8242C243.824 31.9115 244.049 32.7643 244.498 33.3828C244.947 33.9948 245.572 34.3008 246.373 34.3008C247.174 34.3008 247.796 33.9883 248.238 33.3633C248.688 32.7383 248.912 31.8236 248.912 30.6191C248.912 29.5514 248.681 28.7051 248.219 28.0801C247.763 27.4551 247.141 27.1426 246.354 27.1426C245.579 27.1426 244.964 27.4518 244.508 28.0703C244.052 28.6823 243.824 29.6003 243.824 30.8242ZM252.838 30.6191C252.838 29.584 253.043 28.653 253.453 27.8262C253.863 26.9928 254.439 26.3548 255.182 25.9121C255.924 25.4629 256.777 25.2383 257.74 25.2383C259.166 25.2383 260.322 25.6973 261.207 26.6152C262.099 27.5332 262.581 28.7507 262.652 30.2676L262.662 30.8242C262.662 31.8659 262.46 32.7969 262.057 33.6172C261.66 34.4375 261.087 35.0723 260.338 35.5215C259.596 35.9707 258.736 36.1953 257.76 36.1953C256.269 36.1953 255.074 35.7005 254.176 34.7109C253.284 33.7148 252.838 32.39 252.838 30.7363V30.6191ZM255.211 30.8242C255.211 31.9115 255.436 32.7643 255.885 33.3828C256.334 33.9948 256.959 34.3008 257.76 34.3008C258.561 34.3008 259.182 33.9883 259.625 33.3633C260.074 32.7383 260.299 31.8236 260.299 30.6191C260.299 29.5514 260.068 28.7051 259.605 28.0801C259.15 27.4551 258.528 27.1426 257.74 27.1426C256.965 27.1426 256.35 27.4518 255.895 28.0703C255.439 28.6823 255.211 29.6003 255.211 30.8242ZM264.254 30.6387C264.254 28.998 264.638 27.6895 265.406 26.7129C266.181 25.7298 267.206 25.2383 268.482 25.2383C269.687 25.2383 270.634 25.6582 271.324 26.498L271.432 25.4336H273.57V35.6777C273.57 37.0645 273.137 38.1582 272.271 38.959C271.412 39.7598 270.25 40.1602 268.785 40.1602C268.01 40.1602 267.252 39.9974 266.51 39.6719C265.774 39.3529 265.214 38.9329 264.83 38.4121L265.953 36.9863C266.682 37.8522 267.581 38.2852 268.648 38.2852C269.436 38.2852 270.058 38.0703 270.514 37.6406C270.969 37.2174 271.197 36.5924 271.197 35.7656V35.0527C270.514 35.8145 269.602 36.1953 268.463 36.1953C267.226 36.1953 266.214 35.7038 265.426 34.7207C264.645 33.7376 264.254 32.377 264.254 30.6387ZM266.617 30.8438C266.617 31.9049 266.832 32.7415 267.262 33.3535C267.698 33.959 268.3 34.2617 269.068 34.2617C270.025 34.2617 270.735 33.8516 271.197 33.0312V28.3828C270.748 27.582 270.045 27.1816 269.088 27.1816C268.307 27.1816 267.698 27.4909 267.262 28.1094C266.832 28.7279 266.617 29.6393 266.617 30.8438ZM278.541 36H276.168V21H278.541V36ZM285.787 36.1953C284.283 36.1953 283.062 35.7233 282.125 34.7793C281.194 33.8288 280.729 32.5658 280.729 30.9902V30.6973C280.729 29.6426 280.93 28.7018 281.334 27.875C281.744 27.0417 282.317 26.3939 283.053 25.9316C283.788 25.4694 284.609 25.2383 285.514 25.2383C286.952 25.2383 288.062 25.6973 288.844 26.6152C289.632 27.5332 290.025 28.832 290.025 30.5117V31.4688H283.121C283.193 32.3411 283.482 33.0312 283.99 33.5391C284.505 34.0469 285.149 34.3008 285.924 34.3008C287.011 34.3008 287.896 33.8613 288.58 32.9824L289.859 34.2031C289.436 34.8346 288.87 35.3262 288.16 35.6777C287.457 36.0228 286.666 36.1953 285.787 36.1953ZM285.504 27.1426C284.853 27.1426 284.326 27.3704 283.922 27.8262C283.525 28.2819 283.271 28.9167 283.16 29.7305H287.682V29.5547C287.63 28.7604 287.418 28.1615 287.047 27.7578C286.676 27.3477 286.161 27.1426 285.504 27.1426Z" fill="black" fill-opacity="0.54"/>
</g>
<defs>
<filter id="filter0_dd_30_11543" x="0" y="0" width="351" height="62" filterUnits="userSpaceOnUse" color-interpolation-filters="sRGB">
<feFlood flood-opacity="0" result="BackgroundImageFix"/>
<feColorMatrix in="SourceAlpha" type="matrix" values="0 0 0 0 0 0 0 0 0 0 0 0 0 0 0 0 0 0 127 0" result="hardAlpha"/>
<feOffset dy="2"/>
<feGaussianBlur stdDeviation="1.5"/>
<feColorMatrix type="matrix" values="0 0 0 0 0 0 0 0 0 0 0 0 0 0 0 0 0 0 0.168 0"/>
<feBlend mode="normal" in2="BackgroundImageFix" result="effect1_dropShadow_30_11543"/>
<feColorMatrix in="SourceAlpha" type="matrix" values="0 0 0 0 0 0 0 0 0 0 0 0 0 0 0 0 0 0 127 0" result="hardAlpha"/>
<feOffset/>
<feGaussianBlur stdDeviation="1.5"/>
<feColorMatrix type="matrix" values="0 0 0 0 0 0 0 0 0 0 0 0 0 0 0 0 0 0 0.084 0"/>
<feBlend mode="normal" in2="effect1_dropShadow_30_11543" result="effect2_dropShadow_30_11543"/>
<feBlend mode="normal" in="SourceGraphic" in2="effect2_dropShadow_30_11543" result="shape"/>
</filter>
</defs>
</svg>
