<svg width="58" height="79" viewBox="0 0 58 79" fill="none" xmlns="http://www.w3.org/2000/svg">
<path d="M30.5454 35.4743C31.5548 35.5793 32.1661 35.6004 32.2304 35.311C32.3857 34.6124 28.2655 31.226 27.7213 27.6884C27.0054 23.0354 29.2461 18.755 30.5454 16.9507C37.4081 8.49482 47.8553 14.7841 49.9999 19.8393C49.9999 19.8393 55.6539 18.9202 55.821 19.8393C55.9881 20.7584 51.685 25.2007 51.685 25.2007C51.685 28.2644 51.6543 30.3171 47.8553 33.0132C44.0563 35.7093 43.413 38.4257 43.5661 39.447C52.7759 59.5436 31.1581 60.2802 16.9119 63.9567C2.66564 67.6331 1.13378 54.6123 10.1717 42.8171C11.0123 41.7201 11.8846 40.7741 12.7759 39.9595M30.5454 35.4743C34.2729 37.0028 39.8284 41.8673 32.2304 49.0977C22.7329 58.1356 7.41441 55.8378 6.95485 55.0719C6.4953 54.306 5.1166 48.4376 12.7759 39.9595M30.5454 35.4743C27.1943 35.1259 19.4553 33.8541 12.7759 39.9595" stroke="#319795" stroke-width="3.06371" stroke-linecap="round"/>
<path d="M40.0755 49.883L40.2613 49.8863L40.2613 49.8863L40.2687 49.8864L40.271 49.8865L40.6401 49.893C40.637 50.0176 40.5827 50.1175 40.5211 50.1784C40.4573 50.2414 40.3649 50.2845 40.2606 50.2843C40.2606 50.2843 40.2606 50.2843 40.2606 50.2843C40.2587 50.2843 40.2568 50.2843 40.2549 50.2842C40.2544 50.2842 40.2539 50.2842 40.2534 50.2842C40.1674 50.282 40.0615 50.2433 39.9779 50.1578C39.8941 50.0721 39.8595 49.9671 39.8591 49.8854L40.0755 49.883ZM40.0537 49.8826L39.8591 49.8849C39.8591 49.883 39.8592 49.8811 39.8592 49.8792L40.0537 49.8826Z" fill="#319795" stroke="#319795" stroke-width="3.06371" stroke-linecap="round"/>
<path d="M30.6563 66.8082C30.6588 66.808 30.66 66.808 30.6599 66.808L30.6563 66.8082Z" fill="#FCFFFF" stroke="#319795" stroke-width="3.06371" stroke-linecap="round"/>
<rect x="37.5582" y="7.53474" width="1.2228" height="4.64663" rx="0.611398" fill="#319795" stroke="#319795" stroke-width="1.2228" stroke-linecap="round"/>
<path d="M41.0412 4.82706C41.0412 6.39365 39.7712 7.66362 38.2046 7.66362C36.638 7.66362 35.3681 6.39365 35.3681 4.82706C35.3681 3.26047 36.638 1.9905 38.2046 1.9905C39.7712 1.9905 41.0412 3.26047 41.0412 4.82706Z" stroke="#319795" stroke-width="2.29253" stroke-linecap="round"/>
<path d="M25.865 77.0818C26.8791 77.0297 27.8993 77.0236 28.9073 76.9194C34.9489 76.3036 40.2032 74.061 44.0665 69.2081C44.534 68.621 44.9658 68.024 45.3642 67.4179C45.8268 66.7141 46.2443 65.9979 46.6202 65.2704C49.3467 59.9942 49.8885 54.1233 49.6057 48.0624C49.5475 46.8338 48.6958 47.0758 47.9758 47.5783C46.689 48.4821 45.3992 49.3859 44.1584 50.351C43.2516 51.0587 42.4764 51.0188 41.5665 50.3295C39.6272 48.8589 37.6113 47.4864 35.6627 46.0219C34.8018 45.3755 34.0757 45.351 33.1995 46.0066C31.2908 47.4374 29.2994 48.7578 27.4091 50.207C26.4073 50.9759 25.5954 51.0342 24.5721 50.2376C22.8105 48.8681 20.9202 47.6641 19.1616 46.2915C18.0342 45.4123 17.1304 45.2897 15.9386 46.2517C14.1249 47.7162 12.1457 48.9723 10.2799 50.3755C9.41289 51.028 8.68679 51.0372 7.81363 50.403C6.4993 49.4533 5.13289 48.5709 3.76341 47.6978C2.47972 46.8798 2.03548 47.1034 1.98339 48.6016C1.89455 51.1414 1.98339 53.6689 2.29896 56.1996C3.9166 69.2234 12.8014 77.1186 25.8619 77.0818H25.865Z" fill="#F2F9F9" stroke="#319795" stroke-width="3.57924" stroke-miterlimit="10" stroke-linecap="round"/>
<circle cx="45.9754" cy="22.6778" r="1.78962" fill="#319795"/>
</svg>
