<svg width="71" height="91" viewBox="0 0 71 91" fill="none" xmlns="http://www.w3.org/2000/svg">
<path d="M0.00158044 66.8836C1.87282 63.3371 5.15381 61.5591 8.61497 59.9976C9.01324 59.8174 9.40361 59.5835 9.73234 59.2975C16.0019 53.8718 22.4849 48.7417 29.8561 44.857C32.6756 43.3714 35.601 42.1434 38.795 41.7277C40.1194 41.5555 41.4739 41.5729 42.7809 41.3232C45.1405 40.8727 46.1709 39.4424 46.2326 37.0718C46.3479 32.6339 46.4602 28.1944 46.7351 23.7645C46.9232 20.7158 47.6739 17.7462 48.9193 14.9441C50.2943 11.8527 52.8056 10.2675 56.1166 9.96093C58.2012 9.76812 60.2194 10.1395 62.0038 11.2869C62.696 11.7326 63.3677 12.3079 63.8402 12.9732C64.2875 13.6007 64.7095 13.9215 65.4997 13.9737C67.0833 14.078 68.591 14.5331 69.9834 15.3249C70.9301 15.8623 71.2462 16.7331 70.8021 17.5628C70.3611 18.3878 69.484 18.538 68.4915 18.1555C67.4041 17.7367 66.2583 17.4585 65.1267 17.1677C64.9544 17.1235 64.5973 17.2878 64.5261 17.4443C63.4641 19.8165 61.449 20.9039 59.0705 21.378C58.2518 21.5408 58.0226 21.8901 57.8725 22.606C57.0191 26.6772 57.234 30.7247 58.2961 34.7011C59.3976 38.8261 60.7363 42.8878 61.9026 46.9969C62.8098 50.191 62.9536 53.4072 61.8584 56.6092C61.6071 57.3456 61.1946 57.8577 60.3664 57.8988C59.2933 57.9525 58.3846 57.0106 58.7402 56.0117C60.044 52.3356 59.2001 48.8334 58.1269 45.2995C56.9701 41.4891 55.78 37.6802 54.8618 33.8097C53.7776 29.2439 53.9135 24.64 55.2363 20.1042C55.6267 18.764 55.908 18.5522 57.3304 18.4305C58.5473 18.3262 59.7232 18.0702 60.7141 17.2973C61.9579 16.3269 61.9785 15.1906 60.7189 14.2471C58.1838 12.349 53.1328 12.5529 51.6219 16.6636C50.5235 19.6506 49.8802 22.7246 49.7127 25.8759C49.5072 29.7591 49.4266 33.6501 49.3919 37.538C49.3713 39.8865 48.4262 41.6803 46.5992 43.0711C46.4127 43.2134 46.2215 43.3509 46.035 43.4931C46.0176 43.5057 46.016 43.5405 45.9892 43.6148C47.4906 44.748 48.6933 46.1498 49.2259 48.0052C50.1821 51.3384 49.7585 54.3586 47.2472 56.9679C42.4838 61.9194 36.7468 64.9017 29.9224 65.7868C23.2767 66.6481 16.906 65.526 10.7122 63.1379C10.2017 62.9404 9.78766 62.9372 9.2993 63.168C7.68883 63.9282 6.12578 64.7532 4.78399 65.9243C7.17835 66.4063 9.56955 66.735 11.8644 67.3956C13.99 68.0089 16.081 68.8417 18.0692 69.8169C24.1301 72.7881 30.4867 74.3543 37.2383 73.9513C41.8105 73.6779 45.8311 72.0769 48.7976 68.3724C49.3065 67.737 49.8518 67.1286 50.4097 66.5343C51.0877 65.8136 51.9775 65.7504 52.6586 66.3336C53.3129 66.8931 53.3841 67.8571 52.8024 68.5999C49.8202 72.4088 46.3479 75.5175 41.3664 76.4895C41.1278 77.8028 40.897 79.0798 40.6489 80.4437C41.6809 80.371 42.6197 80.3363 43.5506 80.2288C44.3297 80.1387 44.9303 80.3616 45.4218 80.9732C46.4443 82.2423 47.4969 83.4861 48.5163 84.7568C49.2781 85.7066 49.1501 86.6027 48.1607 87.3313C46.6245 88.4613 45.0773 89.5755 43.5348 90.6961H42.43C42.1945 90.5886 41.9654 90.4653 41.7236 90.3768C39.1159 89.4238 36.5065 88.4771 33.8988 87.5273C32.4748 87.0089 32.252 86.7054 32.2299 85.1566C32.1935 82.7401 32.1524 80.3236 32.1572 77.9087C32.1572 77.2892 31.9612 77.0837 31.3417 76.9652C28.5949 76.4421 25.807 76.0201 23.1392 75.2172C20.7243 74.4902 18.39 73.4219 16.1126 72.3156C11.8312 70.2341 7.26844 69.4423 2.5935 69.0772C1.58834 68.9982 0.592664 68.9935 0 67.982V66.8773L0.00158044 66.8836ZM12.9959 60.633C17.8653 62.2624 22.6271 63.1253 27.5802 62.8313C34.6685 62.4109 40.5872 59.5914 45.3301 54.3175C45.7205 53.8845 46.0556 53.3266 46.2136 52.7703C47.7277 47.4189 43.1665 44.6626 39.4351 44.8807C37.2399 45.0087 35.1995 45.8385 33.2177 46.7551C27.89 49.2174 23.1376 52.5838 18.5243 56.1619C16.7021 57.5748 14.9367 59.0604 12.9959 60.633ZM35.4382 77.2497C35.4382 79.6772 35.4287 82.0084 35.4587 84.3395C35.4603 84.5197 35.7132 84.79 35.906 84.8627C38.0111 85.656 40.1242 86.4257 42.2451 87.1764C42.4569 87.2507 42.7825 87.2365 42.9642 87.1195C43.6881 86.6549 44.3756 86.1333 45.0994 85.6165C44.611 85.016 44.1432 84.4833 43.7276 83.9128C43.4447 83.524 43.1317 83.4229 42.6592 83.4734C41.4091 83.6046 40.1526 83.7074 38.8962 83.7579C37.6761 83.8069 36.9886 82.9914 37.1893 81.8013C37.4469 80.2636 37.7219 78.729 38.0048 77.1106C37.0929 77.1612 36.2616 77.2054 35.4398 77.2513L35.4382 77.2497Z" fill="#319795"/>
<path d="M0.00195312 67.9867C0.594618 68.9982 1.59029 69.0045 2.59545 69.0819C7.27039 69.447 11.8331 70.2388 16.1145 72.3202C18.3919 73.4266 20.7247 74.4949 23.1412 75.2219C25.8105 76.0248 28.5968 76.4468 31.3436 76.9699C31.9647 77.0884 32.1607 77.2939 32.1591 77.9134C32.1544 80.3299 32.1955 82.7464 32.2318 85.1613C32.2555 86.7101 32.4784 87.0136 33.9008 87.532C36.5101 88.4818 39.1194 89.4285 41.7255 90.3815C41.9673 90.47 42.1965 90.5933 42.432 90.7007H0.00195312V67.9835V67.9867Z" fill="white"/>
<path d="M57.7761 62.1295C57.7603 63.0114 57.019 63.7305 56.1593 63.6957C55.3374 63.6641 54.6199 62.9292 54.6104 62.1121C54.601 61.2461 55.3295 60.527 56.213 60.5285C57.1075 60.5301 57.7934 61.2303 57.7776 62.1295H57.7761Z" fill="#319795"/>
<path d="M35.4385 77.2496C36.2604 77.2053 37.0917 77.1595 38.0036 77.1089C37.7223 78.7257 37.4473 80.2619 37.1881 81.7997C36.989 82.9913 37.6749 83.8052 38.895 83.7563C40.1514 83.7057 41.4079 83.603 42.658 83.4718C43.1305 83.4228 43.4435 83.5239 43.7264 83.9111C44.142 84.4817 44.6098 85.0143 45.0982 85.6148C44.3743 86.1317 43.6869 86.6532 42.963 87.1178C42.7828 87.2348 42.4557 87.249 42.2439 87.1747C40.123 86.424 38.0099 85.6544 35.9048 84.861C35.7104 84.7883 35.4591 84.5196 35.4575 84.3379C35.4275 82.0067 35.437 79.6756 35.437 77.248L35.4385 77.2496Z" fill="white"/>
<rect x="55.5596" y="5.63684" width="2.26768" height="5.44242" rx="1.13384" fill="#319795"/>
<path d="M59.4324 3.69307C59.4324 5.18814 58.2204 6.40012 56.7253 6.40012C55.2302 6.40012 54.0182 5.18814 54.0182 3.69307C54.0182 2.19801 55.2302 0.98602 56.7253 0.98602C58.2204 0.98602 59.4324 2.19801 59.4324 3.69307Z" stroke="#319795" stroke-width="1.97204"/>
</svg>
