<svg width="85" height="74" viewBox="0 0 85 74" fill="none" xmlns="http://www.w3.org/2000/svg">
<path d="M7.24931 57.9322C9.59431 60.181 12.6233 61.9084 16.2059 63.0491C17.1504 63.3424 18.1275 63.5543 19.2349 63.7987C19.6745 63.8965 20.1305 63.9943 20.6028 64.1084C19.5117 66.292 18.2903 68.0194 16.7921 69.5186C16.727 69.5838 16.6456 69.6653 16.5804 69.7305C16.0919 70.2193 15.5708 70.7408 15.1311 71.2949C14.8054 71.7186 14.7566 72.3215 15.0008 72.8919C15.2451 73.4785 15.7336 73.8859 16.2873 73.9511C16.5642 73.9837 16.841 74 17.1341 74C17.5738 74 18.0135 73.9511 18.4206 73.8696C18.7463 73.8044 19.072 73.7393 19.3977 73.6741C21.1727 73.3156 23.0129 72.9571 24.7879 72.4519C30.7319 70.7245 36.4804 68.8994 41.5449 65.4609C42.3103 64.9395 43.1571 64.9069 43.9713 64.8743C47.8797 64.7276 51.4134 64.5972 54.9309 64.4505C59.9955 64.2387 64.6692 63.0328 69.1963 60.7514C73.5932 58.5514 77.127 55.553 79.6837 51.8375C82.1264 48.285 83.7549 43.9665 84.504 39.0288C84.9436 36.1933 84.8948 33.2601 84.8622 30.4083C84.8622 29.8379 84.8459 29.2839 84.8459 28.7135C84.8134 23.6944 84.2108 19.2456 83.0058 15.0901C81.817 11.0161 79.5208 7.49618 76.3779 4.92141C73.2187 2.33036 69.3918 0.863686 65.3206 0.651839C58.7416 0.309623 51.6414 0 44.4273 0C39.7536 0 35.5033 0.130392 31.3995 0.391127L30.3085 0.456295C26.1884 0.71703 21.9218 0.994062 17.7204 1.35257C16.6456 1.45035 15.4731 1.7437 14.3494 2.23258C7.1516 5.3614 2.77102 10.902 1.37053 18.6752C0.246887 24.8677 0.0677553 31.2883 0.00261644 36.8126C-0.0462377 40.6748 0.588866 44.6673 1.92421 49.0346C3.01529 52.6034 4.8066 55.5855 7.24931 57.9322ZM23.3223 68.0194C23.6969 67.3187 24.0388 66.7157 24.3483 66.0965L24.4622 65.8683C24.8856 65.0209 25.3091 64.1572 25.6185 63.2447C25.8627 62.5276 25.8464 61.8921 25.537 61.3869C25.2276 60.8655 24.6251 60.5233 23.7946 60.4092C23.2246 60.3277 22.6384 60.2625 22.0684 60.181C20.961 60.0506 19.8211 59.9203 18.7463 59.6595C15.5057 58.8936 12.8024 57.5411 10.718 55.6507C8.55209 53.7115 6.97247 51.1367 6.02796 47.9916C4.69261 43.6243 4.12265 39.9089 4.20407 36.2911C4.33435 31.0764 4.54605 25.5032 5.49056 19.9463C5.73483 18.5122 6.07681 17.1923 6.50021 16.0353C7.75414 12.6294 9.61059 9.97314 11.9719 8.1154C14.3983 6.22507 17.4273 5.13324 21.0099 4.85621C29.4617 4.22066 36.8875 3.91103 43.6782 3.91103C45.3718 3.91103 47.0654 3.92735 48.7102 3.97624C49.6058 3.99254 50.5015 4.00882 51.3809 4.04141C55.6637 4.13918 60.0932 4.23695 64.4412 4.48139C68.089 4.69324 71.2156 5.85025 73.7235 7.90354C76.215 9.95684 77.9738 12.7924 78.9509 16.3286C79.9117 19.8648 80.3839 23.0425 80.4002 26.0573C80.4002 27.7195 80.4328 29.4142 80.4654 31.0601C80.4979 32.4616 80.5142 33.8956 80.5305 35.3297C80.5468 38.0511 80.1071 40.7399 79.2114 43.3147C78.3646 45.7428 77.0944 48.1383 75.4334 50.4686C72.3067 54.836 67.6819 57.7692 60.8423 59.6759C58.2693 60.3929 55.5498 60.5069 52.9279 60.6047C51.9671 60.6373 50.99 60.6862 50.013 60.7514C48.6776 60.8491 47.2934 60.8654 45.9743 60.8817C44.8344 60.898 43.6456 60.9144 42.4894 60.9795C41.5286 61.0284 40.4538 61.1588 39.7373 61.6965C35.6173 64.8091 30.7156 66.4061 25.9767 67.9542L25.879 67.9868L25.6673 68.052C25.0974 68.2312 24.5274 68.4268 23.9411 68.5408C23.8271 68.5734 23.6969 68.5734 23.5177 68.5734C23.3875 68.5734 23.2572 68.5735 23.1106 68.5572C23.078 68.5572 23.0455 68.5572 23.0129 68.5572C23.1269 68.3942 23.2246 68.2149 23.3223 68.0194Z" fill="#319795"/>
<path d="M22.6872 25.8454L22.7198 25.878C23.2572 26.481 23.9248 26.7906 24.8368 26.8395C27.3935 26.9862 34.4936 27.0024 41.3658 27.0187C48.1402 27.035 55.1589 27.035 57.6668 27.1817C59.165 27.2632 60.7609 27.3283 62.715 27.3446H62.7639C64.0504 27.3446 64.832 26.7254 64.8972 25.6661C64.9786 24.5906 64.3109 23.6943 63.2198 23.4336C62.7476 23.3195 62.2753 23.3032 61.8519 23.3032C61.3797 23.3032 60.6957 23.287 59.7512 23.287C58.139 23.287 55.9732 23.3032 53.4816 23.3032C50.3224 23.3195 46.7397 23.3359 43.3362 23.3359C36.6758 23.3359 32.686 23.287 31.139 23.1566C29.8199 23.0588 28.4846 22.9936 27.1818 22.9447C26.2536 22.9121 25.2765 22.8632 24.332 22.8144C24.2831 22.8144 24.2343 22.8144 24.1854 22.8144C23.534 22.8144 22.9966 23.0914 22.6872 23.5803C22.3127 24.1832 22.2964 25.0632 22.6709 25.7965L22.6872 25.8454Z" fill="#319795"/>
<path d="M33.7445 41.017C36.9038 41.0007 40.4864 40.9844 43.8899 40.9844C50.5503 40.9844 54.5401 41.0333 56.0871 41.1636C57.4062 41.2614 58.7416 41.3266 60.0443 41.3755C60.9726 41.4081 61.9496 41.457 62.8941 41.5059C62.943 41.5059 62.9919 41.5059 63.0407 41.5059C63.6921 41.5059 64.2295 41.2288 64.5389 40.7399C64.9135 40.137 64.9297 39.257 64.5552 38.5237L64.5389 38.4911L64.5063 38.4585C63.9689 37.8555 63.3013 37.5459 62.3893 37.497C59.8326 37.3504 52.7325 37.3341 45.8603 37.3178C39.0859 37.3015 32.0835 37.3015 29.5594 37.1548C28.0612 37.0733 26.4653 37.0081 24.5111 36.9918H24.4622C23.1757 36.9918 22.3941 37.6111 22.3289 38.6703C22.2475 39.7459 22.9152 40.6421 24.0063 40.9029C24.4785 41.0169 24.9508 41.0333 25.3742 41.0333C25.8464 41.0333 26.5304 41.0496 27.4749 41.0496C29.1034 41.0333 31.253 41.017 33.7445 41.017Z" fill="#319795"/>
</svg>
