<svg width="1052" height="152" viewBox="0 0 1052 152" fill="none" xmlns="http://www.w3.org/2000/svg">
<circle cx="1001.6" cy="131.1" r="18.8434" stroke="#9CA3AF" stroke-width="2.51246"/>
<circle cx="1001.6" cy="131.1" r="6.28114" fill="#D1D5DB"/>
<circle cx="756.1" cy="130.1" r="18.8434" stroke="#319795" stroke-width="2.51246"/>
<circle cx="756.1" cy="130.1" r="6.28114" fill="#319795"/>
<rect x="776.199" y="128.843" width="203.801" height="2.51246" fill="#D1D5DB"/>
<circle cx="514.1" cy="130.1" r="20.0996" fill="#319795"/>
<path d="M506.771 131.146L510.959 135.334L521.427 124.865" stroke="white" stroke-width="2.51246" stroke-linecap="round" stroke-linejoin="round"/>
<rect x="534.199" y="128.843" width="202.801" height="2.51246" fill="#319795"/>
<circle cx="267.1" cy="131.1" r="20.0996" fill="#319795"/>
<path d="M259.771 132.146L263.959 136.334L274.427 125.865" stroke="white" stroke-width="2.51246" stroke-linecap="round" stroke-linejoin="round"/>
<rect x="287.199" y="129.843" width="203.801" height="2.51246" fill="#319795"/>
<circle cx="20.0996" cy="131.1" r="20.0996" fill="#319795"/>
<path d="M12.7715 132.146L16.9589 136.334L27.4275 125.865" stroke="white" stroke-width="2.51246" stroke-linecap="round" stroke-linejoin="round"/>
<rect x="40.1992" y="129.843" width="204.801" height="2.51246" fill="#319795"/>
<path d="M720.002 66.8836C721.873 63.3371 725.154 61.5591 728.615 59.9976C729.013 59.8174 729.404 59.5835 729.732 59.2975C736.002 53.8718 742.485 48.7417 749.856 44.857C752.676 43.3714 755.601 42.1434 758.795 41.7277C760.119 41.5555 761.474 41.5728 762.781 41.3231C765.14 40.8727 766.171 39.4424 766.233 37.0718C766.348 32.6339 766.46 28.1944 766.735 23.7645C766.923 20.7158 767.674 17.7462 768.919 14.944C770.294 11.8527 772.806 10.2675 776.117 9.96092C778.201 9.7681 780.219 10.1395 782.004 11.2869C782.696 11.7326 783.368 12.3079 783.84 12.9732C784.287 13.6007 784.709 13.9215 785.5 13.9736C787.083 14.078 788.591 14.5331 789.983 15.3249C790.93 15.8623 791.246 16.7331 790.802 17.5628C790.361 18.3878 789.484 18.538 788.491 18.1555C787.404 17.7367 786.258 17.4585 785.127 17.1677C784.954 17.1235 784.597 17.2878 784.526 17.4443C783.464 19.8165 781.449 20.9039 779.07 21.378C778.252 21.5408 778.023 21.8901 777.872 22.606C777.019 26.6772 777.234 30.7247 778.296 34.7011C779.398 38.826 780.736 42.8878 781.903 46.9969C782.81 50.191 782.954 53.4072 781.858 56.6091C781.607 57.3456 781.195 57.8577 780.366 57.8988C779.293 57.9525 778.385 57.0106 778.74 56.0117C780.044 52.3356 779.2 48.8334 778.127 45.2995C776.97 41.4891 775.78 37.6802 774.862 33.8097C773.778 29.2438 773.913 24.64 775.236 20.1042C775.627 18.764 775.908 18.5522 777.33 18.4305C778.547 18.3262 779.723 18.0701 780.714 17.2973C781.958 16.3269 781.978 15.1906 780.719 14.2471C778.184 12.349 773.133 12.5528 771.622 16.6636C770.523 19.6506 769.88 22.7245 769.713 25.8759C769.507 29.7591 769.427 33.6501 769.392 37.538C769.371 39.8865 768.426 41.6803 766.599 43.0711C766.413 43.2133 766.222 43.3508 766.035 43.4931C766.018 43.5057 766.016 43.5405 765.989 43.6148C767.491 44.7479 768.693 46.1498 769.226 48.0052C770.182 51.3384 769.759 54.3586 767.247 56.9679C762.484 61.9194 756.747 64.9017 749.922 65.7867C743.277 66.6481 736.906 65.526 730.712 63.1379C730.202 62.9404 729.788 62.9372 729.299 63.168C727.689 63.9282 726.126 64.7531 724.784 65.9242C727.178 66.4063 729.57 66.735 731.864 67.3956C733.99 68.0088 736.081 68.8417 738.069 69.8169C744.13 72.7881 750.487 74.3543 757.238 73.9513C761.81 73.6779 765.831 72.0769 768.798 68.3723C769.307 67.737 769.852 67.1285 770.41 66.5343C771.088 65.8136 771.977 65.7504 772.659 66.3336C773.313 66.8931 773.384 67.8571 772.802 68.5999C769.82 72.4088 766.348 75.5175 761.366 76.4895C761.128 77.8028 760.897 79.0798 760.649 80.4437C761.681 80.371 762.62 80.3363 763.551 80.2288C764.33 80.1387 764.93 80.3615 765.422 80.9732C766.444 82.2423 767.497 83.4861 768.516 84.7567C769.278 85.7066 769.15 86.6027 768.161 87.3313C766.625 88.4613 765.077 89.5755 763.535 90.696H762.43C762.195 90.5886 761.965 90.4653 761.724 90.3768C759.116 89.4238 756.507 88.4771 753.899 87.5273C752.475 87.0089 752.252 86.7054 752.23 85.1566C752.194 82.7401 752.152 80.3236 752.157 77.9087C752.157 77.2892 751.961 77.0837 751.342 76.9652C748.595 76.4421 745.807 76.0201 743.139 75.2172C740.724 74.4902 738.39 73.4218 736.113 72.3155C731.831 70.2341 727.268 69.4423 722.593 69.0772C721.588 68.9982 720.593 68.9935 720 67.982V66.8772L720.002 66.8836ZM732.996 60.6329C737.865 62.2624 742.627 63.1253 747.58 62.8313C754.668 62.4109 760.587 59.5914 765.33 54.3175C765.721 53.8845 766.056 53.3266 766.214 52.7703C767.728 47.4189 763.167 44.6626 759.435 44.8807C757.24 45.0087 755.2 45.8384 753.218 46.7551C747.89 49.2174 743.138 52.5838 738.524 56.1619C736.702 57.5748 734.937 59.0604 732.996 60.6329ZM755.438 77.2497C755.438 79.6772 755.429 82.0084 755.459 84.3395C755.46 84.5197 755.713 84.7899 755.906 84.8626C758.011 85.656 760.124 86.4257 762.245 87.1764C762.457 87.2507 762.782 87.2365 762.964 87.1195C763.688 86.6549 764.376 86.1333 765.099 85.6165C764.611 85.0159 764.143 84.4833 763.728 83.9128C763.445 83.524 763.132 83.4229 762.659 83.4734C761.409 83.6046 760.153 83.7073 758.896 83.7579C757.676 83.8069 756.989 82.9914 757.189 81.8013C757.447 80.2636 757.722 78.729 758.005 77.1106C757.093 77.1612 756.262 77.2054 755.44 77.2512L755.438 77.2497Z" fill="#319795"/>
<path d="M720.001 67.9867C720.594 68.9981 721.59 69.0045 722.595 69.0819C727.27 69.447 731.833 70.2388 736.114 72.3202C738.391 73.4265 740.724 74.4949 743.141 75.2219C745.81 76.0248 748.596 76.4468 751.343 76.9699C751.964 77.0884 752.16 77.2939 752.159 77.9134C752.154 80.3299 752.195 82.7464 752.231 85.1613C752.255 86.7101 752.478 87.0136 753.9 87.5319C756.51 88.4818 759.119 89.4285 761.725 90.3815C761.967 90.47 762.196 90.5933 762.431 90.7007H720.001V67.9835V67.9867Z" fill="white"/>
<path d="M777.776 62.1295C777.76 63.0114 777.019 63.7305 776.159 63.6957C775.337 63.6641 774.62 62.9292 774.61 62.1121C774.601 61.246 775.33 60.5269 776.213 60.5285C777.108 60.5301 777.793 61.2302 777.778 62.1295H777.776Z" fill="#319795"/>
<path d="M755.438 77.2496C756.26 77.2053 757.091 77.1595 758.003 77.1089C757.722 78.7257 757.447 80.2619 757.188 81.7997C756.988 82.9913 757.674 83.8052 758.894 83.7562C760.151 83.7057 761.407 83.6029 762.658 83.4718C763.13 83.4228 763.443 83.5239 763.726 83.9111C764.142 84.4817 764.609 85.0143 765.098 85.6148C764.374 86.1316 763.686 86.6532 762.963 87.1178C762.782 87.2348 762.455 87.249 762.243 87.1747C760.122 86.424 758.009 85.6543 755.904 84.861C755.71 84.7883 755.459 84.5196 755.457 84.3378C755.427 82.0067 755.436 79.6755 755.436 77.248L755.438 77.2496Z" fill="white"/>
<rect x="775.56" y="5.63684" width="2.26768" height="5.44242" rx="1.13384" fill="#319795"/>
<path d="M779.433 3.69307C779.433 5.18814 778.221 6.40012 776.726 6.40012C775.231 6.40012 774.019 5.18814 774.019 3.69307C774.019 2.19801 775.231 0.98602 776.726 0.98602C778.221 0.98602 779.433 2.19801 779.433 3.69307Z" stroke="#319795" stroke-width="1.97204"/>
</svg>
