<svg width="1050" height="156" viewBox="0 0 1050 156" fill="none" xmlns="http://www.w3.org/2000/svg">
<circle cx="999.553" cy="135.1" r="18.8434" stroke="#D1D5DB" stroke-width="2.51246"/>
<circle cx="754.689" cy="135.1" r="18.8434" stroke="#D1D5DB" stroke-width="2.51246"/>
<rect x="774.789" y="133.843" width="204.139" height="2.51246" fill="#D1D5DB"/>
<circle cx="509.826" cy="135.1" r="18.8434" stroke="#9CA3AF" stroke-width="2.51246"/>
<circle cx="509.826" cy="135.1" r="6.28114" fill="#D1D5DB"/>
<rect x="529.926" y="133.843" width="204.139" height="2.51246" fill="#D1D5DB"/>
<circle cx="264.963" cy="135.1" r="18.8434" stroke="#319795" stroke-width="2.51246"/>
<circle cx="264.963" cy="135.1" r="6.28114" fill="#319795"/>
<rect x="285.062" y="133.843" width="204.139" height="2.51246" fill="#D1D5DB"/>
<circle cx="20.0996" cy="135.1" r="20.0996" fill="#319795"/>
<path d="M12.7716 136.146L16.959 140.334L27.4276 129.865" stroke="white" stroke-width="2.51246" stroke-linecap="round" stroke-linejoin="round"/>
<rect x="40.1993" y="133.843" width="204.139" height="2.51246" fill="#319795"/>
<path d="M223.002 66.8836C224.873 63.3371 228.154 61.5591 231.615 59.9976C232.013 59.8174 232.404 59.5835 232.732 59.2975C239.002 53.8718 245.485 48.7417 252.856 44.857C255.676 43.3714 258.601 42.1434 261.795 41.7277C263.119 41.5555 264.474 41.5728 265.781 41.3231C268.14 40.8727 269.171 39.4424 269.233 37.0718C269.348 32.6339 269.46 28.1944 269.735 23.7645C269.923 20.7158 270.674 17.7462 271.919 14.944C273.294 11.8527 275.806 10.2675 279.117 9.96092C281.201 9.7681 283.219 10.1395 285.004 11.2869C285.696 11.7326 286.368 12.3079 286.84 12.9732C287.287 13.6007 287.709 13.9215 288.5 13.9736C290.083 14.078 291.591 14.5331 292.983 15.3249C293.93 15.8623 294.246 16.7331 293.802 17.5628C293.361 18.3878 292.484 18.538 291.491 18.1555C290.404 17.7367 289.258 17.4585 288.127 17.1677C287.954 17.1235 287.597 17.2878 287.526 17.4443C286.464 19.8165 284.449 20.9039 282.07 21.378C281.252 21.5408 281.023 21.8901 280.872 22.606C280.019 26.6772 280.234 30.7247 281.296 34.7011C282.398 38.826 283.736 42.8878 284.903 46.9969C285.81 50.191 285.954 53.4072 284.858 56.6091C284.607 57.3456 284.195 57.8577 283.366 57.8988C282.293 57.9525 281.385 57.0106 281.74 56.0117C283.044 52.3356 282.2 48.8334 281.127 45.2995C279.97 41.4891 278.78 37.6802 277.862 33.8097C276.778 29.2438 276.913 24.64 278.236 20.1042C278.627 18.764 278.908 18.5522 280.33 18.4305C281.547 18.3262 282.723 18.0701 283.714 17.2973C284.958 16.3269 284.978 15.1906 283.719 14.2471C281.184 12.349 276.133 12.5528 274.622 16.6636C273.523 19.6506 272.88 22.7245 272.713 25.8759C272.507 29.7591 272.427 33.6501 272.392 37.538C272.371 39.8865 271.426 41.6803 269.599 43.0711C269.413 43.2133 269.222 43.3508 269.035 43.4931C269.018 43.5057 269.016 43.5405 268.989 43.6148C270.491 44.7479 271.693 46.1498 272.226 48.0052C273.182 51.3384 272.759 54.3586 270.247 56.9679C265.484 61.9194 259.747 64.9017 252.922 65.7867C246.277 66.6481 239.906 65.526 233.712 63.1379C233.202 62.9404 232.788 62.9372 232.299 63.168C230.689 63.9282 229.126 64.7531 227.784 65.9242C230.178 66.4063 232.57 66.735 234.864 67.3956C236.99 68.0088 239.081 68.8417 241.069 69.8169C247.13 72.7881 253.487 74.3543 260.238 73.9513C264.81 73.6779 268.831 72.0769 271.798 68.3723C272.307 67.737 272.852 67.1285 273.41 66.5343C274.088 65.8136 274.977 65.7504 275.659 66.3336C276.313 66.8931 276.384 67.8571 275.802 68.5999C272.82 72.4088 269.348 75.5175 264.366 76.4895C264.128 77.8028 263.897 79.0798 263.649 80.4437C264.681 80.371 265.62 80.3363 266.551 80.2288C267.33 80.1387 267.93 80.3615 268.422 80.9732C269.444 82.2423 270.497 83.4861 271.516 84.7567C272.278 85.7066 272.15 86.6027 271.161 87.3313C269.625 88.4613 268.077 89.5755 266.535 90.696H265.43C265.195 90.5886 264.965 90.4653 264.724 90.3768C262.116 89.4238 259.507 88.4771 256.899 87.5273C255.475 87.0089 255.252 86.7054 255.23 85.1566C255.194 82.7401 255.152 80.3236 255.157 77.9087C255.157 77.2892 254.961 77.0837 254.342 76.9652C251.595 76.4421 248.807 76.0201 246.139 75.2172C243.724 74.4902 241.39 73.4218 239.113 72.3155C234.831 70.2341 230.268 69.4423 225.593 69.0772C224.588 68.9982 223.593 68.9935 223 67.982V66.8772L223.002 66.8836ZM235.996 60.6329C240.865 62.2624 245.627 63.1253 250.58 62.8313C257.668 62.4109 263.587 59.5914 268.33 54.3175C268.721 53.8845 269.056 53.3266 269.214 52.7703C270.728 47.4189 266.167 44.6626 262.435 44.8807C260.24 45.0087 258.2 45.8384 256.218 46.7551C250.89 49.2174 246.138 52.5838 241.524 56.1619C239.702 57.5748 237.937 59.0604 235.996 60.6329ZM258.438 77.2497C258.438 79.6772 258.429 82.0084 258.459 84.3395C258.46 84.5197 258.713 84.7899 258.906 84.8626C261.011 85.656 263.124 86.4257 265.245 87.1764C265.457 87.2507 265.782 87.2365 265.964 87.1195C266.688 86.6549 267.376 86.1333 268.099 85.6165C267.611 85.0159 267.143 84.4833 266.728 83.9128C266.445 83.524 266.132 83.4229 265.659 83.4734C264.409 83.6046 263.153 83.7073 261.896 83.7579C260.676 83.8069 259.989 82.9914 260.189 81.8013C260.447 80.2636 260.722 78.729 261.005 77.1106C260.093 77.1612 259.262 77.2054 258.44 77.2512L258.438 77.2497Z" fill="#319795"/>
<path d="M223.002 67.9867C223.594 68.9981 224.59 69.0045 225.595 69.0819C230.27 69.447 234.833 70.2388 239.114 72.3202C241.392 73.4265 243.724 74.4949 246.141 75.2219C248.81 76.0248 251.596 76.4468 254.343 76.9699C254.964 77.0884 255.16 77.2939 255.159 77.9134C255.154 80.3299 255.195 82.7464 255.231 85.1613C255.255 86.7101 255.478 87.0136 256.9 87.5319C259.51 88.4818 262.119 89.4285 264.725 90.3815C264.967 90.47 265.196 90.5933 265.432 90.7007H223.002V67.9835V67.9867Z" fill="white"/>
<path d="M280.776 62.1295C280.76 63.0114 280.019 63.7305 279.159 63.6957C278.337 63.6641 277.62 62.9292 277.61 62.1121C277.601 61.246 278.33 60.5269 279.213 60.5285C280.108 60.5301 280.793 61.2302 280.778 62.1295H280.776Z" fill="#319795"/>
<path d="M258.438 77.2496C259.26 77.2053 260.091 77.1595 261.003 77.1089C260.722 78.7257 260.447 80.2619 260.188 81.7997C259.989 82.9913 260.675 83.8052 261.895 83.7562C263.151 83.7057 264.407 83.6029 265.658 83.4718C266.13 83.4228 266.443 83.5239 266.726 83.9111C267.142 84.4817 267.609 85.0143 268.098 85.6148C267.374 86.1316 266.686 86.6532 265.963 87.1178C265.782 87.2348 265.455 87.249 265.244 87.1747C263.123 86.424 261.01 85.6543 258.904 84.861C258.71 84.7883 258.459 84.5196 258.457 84.3378C258.427 82.0067 258.437 79.6755 258.437 77.248L258.438 77.2496Z" fill="white"/>
<rect x="278.559" y="5.63684" width="2.26768" height="5.44242" rx="1.13384" fill="#319795"/>
<path d="M282.433 3.69307C282.433 5.18814 281.221 6.40012 279.726 6.40012C278.23 6.40012 277.018 5.18814 277.018 3.69307C277.018 2.19801 278.23 0.98602 279.726 0.98602C281.221 0.98602 282.433 2.19801 282.433 3.69307Z" stroke="#319795" stroke-width="1.97204"/>
</svg>
