<svg width="1063" height="132" viewBox="0 0 1063 132" fill="none" xmlns="http://www.w3.org/2000/svg">
<circle cx="1000.1" cy="110.1" r="18.8434" stroke="#319795" stroke-width="2.51246"/>
<circle cx="1000.1" cy="110.1" r="6.28114" fill="#319795"/>
<circle cx="759.1" cy="110.1" r="20.0996" fill="#319795"/>
<path d="M751.771 111.146L755.959 115.334L766.427 104.865" stroke="white" stroke-width="2.51246" stroke-linecap="round" stroke-linejoin="round"/>
<rect x="779.199" y="108.843" width="204.801" height="2.51246" fill="#319795"/>
<circle cx="513.1" cy="111.1" r="20.0996" fill="#319795"/>
<path d="M505.771 112.146L509.959 116.334L520.427 105.865" stroke="white" stroke-width="2.51246" stroke-linecap="round" stroke-linejoin="round"/>
<rect x="533.199" y="109.843" width="203.801" height="2.51246" fill="#319795"/>
<circle cx="266.1" cy="110.1" r="20.0996" fill="#319795"/>
<path d="M258.771 111.146L262.959 115.334L273.427 104.865" stroke="white" stroke-width="2.51246" stroke-linecap="round" stroke-linejoin="round"/>
<rect x="286.199" y="108.843" width="203.801" height="2.51246" fill="#319795"/>
<circle cx="20.0996" cy="110.1" r="20.0996" fill="#319795"/>
<path d="M12.7715 111.146L16.9589 115.334L27.4275 104.865" stroke="white" stroke-width="2.51246" stroke-linecap="round" stroke-linejoin="round"/>
<rect x="40.1992" y="108.843" width="203.801" height="2.51246" fill="#319795"/>
<path d="M1056.59 42.1311C1055.19 38.9752 1050.53 33.9888 1043.08 39.2908C1033.77 45.9182 1028.65 42.1311 1020.74 42.1311C1018.48 40.8359 1014.25 38.723 1010.03 37.3413M1056.59 42.1311C1056.43 43.5513 1053.89 46.3917 1044.95 46.3917C1040 47.0019 1030.7 46.9981 1021.67 52.0101M1056.59 42.1311C1057.56 41.9733 1058.56 41.6579 1060.89 42.1311C1062.72 42.5023 1058.8 42.9201 1056.59 42.1311ZM975.693 35.9772C972.439 28.5782 973.059 25.4623 971.038 22.7225C968.244 18.9354 954.277 12.3079 957.536 12.3079C960.795 12.3079 966.732 8.99422 977.906 12.3079C981.098 13.2548 987.203 14.3473 991.407 21.5361M975.693 35.9772C976.937 38.8055 978.952 40.2377 980.814 41.6579C982.677 43.0781 984.911 43.0781 986.401 43.0781M975.693 35.9772C973.63 36.9238 969.526 42.1311 966.732 46.3917C964.497 49.8003 948.69 46.3917 950.087 49.2321C951.484 52.0724 952.3 51.1256 961.261 55.3861C969.883 59.4854 990.41 69.0896 1012.14 57.753M1010.03 37.3413C1007.57 36.5346 1005.11 35.9772 1003.05 35.9772C999.507 35.9772 995.728 28.9241 991.407 21.5361M1010.03 37.3413C1012.36 33.2573 1015.62 22.7225 1010.03 13.2548C1008.05 9.89735 1006.59 7.25428 1005.54 5.24114C1004.69 3.61679 1001.86 3.79214 1001.23 5.51549C999.152 11.2683 995.493 19.7019 991.407 21.5361" stroke="#2B918F" stroke-width="3" stroke-linecap="round" stroke-linejoin="round"/>
<path d="M1018.13 54.9657C1018.12 55.7771 1017.45 56.4388 1016.67 56.4068C1015.92 56.3777 1015.27 55.7015 1015.27 54.9497C1015.26 54.1528 1015.92 53.4912 1016.72 53.4926C1017.53 53.4941 1018.15 54.1383 1018.13 54.9657H1018.13Z" fill="#319795"/>
<rect x="1048.75" y="31.2227" width="2.05105" height="5.00758" rx="1.02552" fill="#319795"/>
<path d="M1052.14 29.4342C1052.14 30.7743 1051.08 31.8322 1049.8 31.8322C1048.52 31.8322 1047.46 30.7743 1047.46 29.4342C1047.46 28.094 1048.52 27.0362 1049.8 27.0362C1051.08 27.0362 1052.14 28.094 1052.14 29.4342Z" stroke="#319795" stroke-width="2"/>
</svg>
