<svg width="1049" height="149" viewBox="0 0 1049 149" fill="none" xmlns="http://www.w3.org/2000/svg">
<circle cx="1000.1" cy="126.1" r="18.8434" stroke="#D1D5DB" stroke-width="2.51246"/>
<circle cx="754.1" cy="128.1" r="18.8434" stroke="#9CA3AF" stroke-width="2.51246"/>
<circle cx="754.1" cy="128.1" r="6.28114" fill="#D1D5DB"/>
<rect x="774.199" y="126.843" width="203.801" height="2.51246" fill="#D1D5DB"/>
<circle cx="507.1" cy="127.1" r="18.8434" stroke="#319795" stroke-width="2.51246"/>
<circle cx="507.1" cy="127.1" r="6.28114" fill="#319795"/>
<rect x="527.199" y="125.843" width="204.801" height="2.51246" fill="#D1D5DB"/>
<circle cx="263.1" cy="126.1" r="20.0996" fill="#319795"/>
<path d="M255.771 127.146L259.959 131.334L270.427 120.865" stroke="white" stroke-width="2.51246" stroke-linecap="round" stroke-linejoin="round"/>
<rect x="283.199" y="124.843" width="203.801" height="2.51246" fill="#319795"/>
<circle cx="20.0996" cy="128.1" r="20.0996" fill="#319795"/>
<path d="M12.7715 129.146L16.9589 133.334L27.4275 122.865" stroke="white" stroke-width="2.51246" stroke-linecap="round" stroke-linejoin="round"/>
<rect x="40.1992" y="126.843" width="203.801" height="2.51246" fill="#319795"/>
<path d="M471.002 66.8836C472.873 63.3371 476.154 61.5591 479.615 59.9976C480.013 59.8174 480.404 59.5835 480.732 59.2975C487.002 53.8718 493.485 48.7417 500.856 44.857C503.676 43.3714 506.601 42.1434 509.795 41.7277C511.119 41.5555 512.474 41.5728 513.781 41.3231C516.14 40.8727 517.171 39.4424 517.233 37.0718C517.348 32.6339 517.46 28.1944 517.735 23.7645C517.923 20.7158 518.674 17.7462 519.919 14.944C521.294 11.8527 523.806 10.2675 527.117 9.96092C529.201 9.7681 531.219 10.1395 533.004 11.2869C533.696 11.7326 534.368 12.3079 534.84 12.9732C535.287 13.6007 535.709 13.9215 536.5 13.9736C538.083 14.078 539.591 14.5331 540.983 15.3249C541.93 15.8623 542.246 16.7331 541.802 17.5628C541.361 18.3878 540.484 18.538 539.491 18.1555C538.404 17.7367 537.258 17.4585 536.127 17.1677C535.954 17.1235 535.597 17.2878 535.526 17.4443C534.464 19.8165 532.449 20.9039 530.07 21.378C529.252 21.5408 529.023 21.8901 528.872 22.606C528.019 26.6772 528.234 30.7247 529.296 34.7011C530.398 38.826 531.736 42.8878 532.903 46.9969C533.81 50.191 533.954 53.4072 532.858 56.6091C532.607 57.3456 532.195 57.8577 531.366 57.8988C530.293 57.9525 529.385 57.0106 529.74 56.0117C531.044 52.3356 530.2 48.8334 529.127 45.2995C527.97 41.4891 526.78 37.6802 525.862 33.8097C524.778 29.2438 524.913 24.64 526.236 20.1042C526.627 18.764 526.908 18.5522 528.33 18.4305C529.547 18.3262 530.723 18.0701 531.714 17.2973C532.958 16.3269 532.978 15.1906 531.719 14.2471C529.184 12.349 524.133 12.5528 522.622 16.6636C521.523 19.6506 520.88 22.7245 520.713 25.8759C520.507 29.7591 520.427 33.6501 520.392 37.538C520.371 39.8865 519.426 41.6803 517.599 43.0711C517.413 43.2133 517.222 43.3508 517.035 43.4931C517.018 43.5057 517.016 43.5405 516.989 43.6148C518.491 44.7479 519.693 46.1498 520.226 48.0052C521.182 51.3384 520.759 54.3586 518.247 56.9679C513.484 61.9194 507.747 64.9017 500.922 65.7867C494.277 66.6481 487.906 65.526 481.712 63.1379C481.202 62.9404 480.788 62.9372 480.299 63.168C478.689 63.9282 477.126 64.7531 475.784 65.9242C478.178 66.4063 480.57 66.735 482.864 67.3956C484.99 68.0088 487.081 68.8417 489.069 69.8169C495.13 72.7881 501.487 74.3543 508.238 73.9513C512.81 73.6779 516.831 72.0769 519.798 68.3723C520.307 67.737 520.852 67.1285 521.41 66.5343C522.088 65.8136 522.977 65.7504 523.659 66.3336C524.313 66.8931 524.384 67.8571 523.802 68.5999C520.82 72.4088 517.348 75.5175 512.366 76.4895C512.128 77.8028 511.897 79.0798 511.649 80.4437C512.681 80.371 513.62 80.3363 514.551 80.2288C515.33 80.1387 515.93 80.3615 516.422 80.9732C517.444 82.2423 518.497 83.4861 519.516 84.7567C520.278 85.7066 520.15 86.6027 519.161 87.3313C517.625 88.4613 516.077 89.5755 514.535 90.696H513.43C513.195 90.5886 512.965 90.4653 512.724 90.3768C510.116 89.4238 507.507 88.4771 504.899 87.5273C503.475 87.0089 503.252 86.7054 503.23 85.1566C503.194 82.7401 503.152 80.3236 503.157 77.9087C503.157 77.2892 502.961 77.0837 502.342 76.9652C499.595 76.4421 496.807 76.0201 494.139 75.2172C491.724 74.4902 489.39 73.4218 487.113 72.3155C482.831 70.2341 478.268 69.4423 473.593 69.0772C472.588 68.9982 471.593 68.9935 471 67.982V66.8772L471.002 66.8836ZM483.996 60.6329C488.865 62.2624 493.627 63.1253 498.58 62.8313C505.668 62.4109 511.587 59.5914 516.33 54.3175C516.721 53.8845 517.056 53.3266 517.214 52.7703C518.728 47.4189 514.167 44.6626 510.435 44.8807C508.24 45.0087 506.2 45.8384 504.218 46.7551C498.89 49.2174 494.138 52.5838 489.524 56.1619C487.702 57.5748 485.937 59.0604 483.996 60.6329ZM506.438 77.2497C506.438 79.6772 506.429 82.0084 506.459 84.3395C506.46 84.5197 506.713 84.7899 506.906 84.8626C509.011 85.656 511.124 86.4257 513.245 87.1764C513.457 87.2507 513.782 87.2365 513.964 87.1195C514.688 86.6549 515.376 86.1333 516.099 85.6165C515.611 85.0159 515.143 84.4833 514.728 83.9128C514.445 83.524 514.132 83.4229 513.659 83.4734C512.409 83.6046 511.153 83.7073 509.896 83.7579C508.676 83.8069 507.989 82.9914 508.189 81.8013C508.447 80.2636 508.722 78.729 509.005 77.1106C508.093 77.1612 507.262 77.2054 506.44 77.2512L506.438 77.2497Z" fill="#319795"/>
<path d="M471.001 67.9867C471.594 68.9981 472.59 69.0045 473.595 69.0819C478.27 69.447 482.833 70.2388 487.114 72.3202C489.391 73.4265 491.724 74.4949 494.141 75.2219C496.81 76.0248 499.596 76.4468 502.343 76.9699C502.964 77.0884 503.16 77.2939 503.159 77.9134C503.154 80.3299 503.195 82.7464 503.231 85.1613C503.255 86.7101 503.478 87.0136 504.9 87.5319C507.51 88.4818 510.119 89.4285 512.725 90.3815C512.967 90.47 513.196 90.5933 513.431 90.7007H471.001V67.9835V67.9867Z" fill="white"/>
<path d="M528.776 62.1295C528.76 63.0114 528.019 63.7305 527.159 63.6957C526.337 63.6641 525.62 62.9292 525.61 62.1121C525.601 61.246 526.33 60.5269 527.213 60.5285C528.108 60.5301 528.793 61.2302 528.778 62.1295H528.776Z" fill="#319795"/>
<path d="M506.438 77.2496C507.26 77.2053 508.091 77.1595 509.003 77.1089C508.722 78.7257 508.447 80.2619 508.188 81.7997C507.988 82.9913 508.674 83.8052 509.894 83.7562C511.151 83.7057 512.407 83.6029 513.658 83.4718C514.13 83.4228 514.443 83.5239 514.726 83.9111C515.142 84.4817 515.609 85.0143 516.098 85.6148C515.374 86.1316 514.686 86.6532 513.963 87.1178C513.782 87.2348 513.455 87.249 513.243 87.1747C511.122 86.424 509.009 85.6543 506.904 84.861C506.71 84.7883 506.459 84.5196 506.457 84.3378C506.427 82.0067 506.436 79.6755 506.436 77.248L506.438 77.2496Z" fill="white"/>
<rect x="526.559" y="5.63684" width="2.26768" height="5.44242" rx="1.13384" fill="#319795"/>
<path d="M530.433 3.69307C530.433 5.18814 529.221 6.40012 527.726 6.40012C526.23 6.40012 525.018 5.18814 525.018 3.69307C525.018 2.19801 526.23 0.98602 527.726 0.98602C529.221 0.98602 530.433 2.19801 530.433 3.69307Z" stroke="#319795" stroke-width="1.97204"/>
</svg>
