<svg width="1049" height="42" viewBox="0 0 1049 42" fill="none" xmlns="http://www.w3.org/2000/svg">
<circle cx="1000.1" cy="20.0996" r="18.8434" stroke="#319795" stroke-width="2.51246"/>
<circle cx="1000.1" cy="20.0997" r="6.28114" fill="#319795"/>
<circle cx="759.1" cy="20.0996" r="20.0996" fill="#319795"/>
<path d="M751.771 21.1465L755.959 25.3339L766.427 14.8653" stroke="white" stroke-width="2.51246" stroke-linecap="round" stroke-linejoin="round"/>
<rect x="779.199" y="18.8434" width="204.801" height="2.51246" fill="#319795"/>
<circle cx="513.1" cy="21.0996" r="20.0996" fill="#319795"/>
<path d="M505.771 22.1465L509.959 26.3339L520.427 15.8653" stroke="white" stroke-width="2.51246" stroke-linecap="round" stroke-linejoin="round"/>
<rect x="533.199" y="19.8434" width="203.801" height="2.51246" fill="#319795"/>
<circle cx="266.1" cy="20.0996" r="20.0996" fill="#319795"/>
<path d="M258.771 21.1465L262.959 25.3339L273.427 14.8653" stroke="white" stroke-width="2.51246" stroke-linecap="round" stroke-linejoin="round"/>
<rect x="286.199" y="18.8434" width="203.801" height="2.51246" fill="#319795"/>
<circle cx="20.0996" cy="20.0996" r="20.0996" fill="#319795"/>
<path d="M12.7715 21.1465L16.9589 25.3339L27.4275 14.8653" stroke="white" stroke-width="2.51246" stroke-linecap="round" stroke-linejoin="round"/>
<rect x="40.1992" y="18.8434" width="203.801" height="2.51246" fill="#319795"/>
</svg>
