<svg width="336" height="319" viewBox="0 0 336 319" fill="none" xmlns="http://www.w3.org/2000/svg">
<path d="M72.7918 199.5C77.243 197.44 81.428 194.511 85.9876 190.306C86.6955 189.634 87.268 189.451 88.1273 189.539C90.8 189.856 93.5167 189.744 96.1217 189.634L96.8844 189.595C103.49 189.319 109.698 187.471 115.343 184.111C118.605 182.158 121.648 179.708 124.345 176.858C127.639 173.376 130.505 169.236 133.142 164.226L133.161 164.207C133.639 163.319 133.939 162.733 134.229 162.427C134.591 162.044 134.927 162.072 136.723 162.358L136.817 162.374C144.601 163.612 151.228 162.777 157.126 159.801C159.863 158.402 162.09 156.776 163.937 154.825C164.262 154.481 164.587 154.099 164.894 153.737C166.228 152.135 166.29 150.345 165.086 149.242C163.959 148.211 162.397 148.329 160.829 149.564C160.647 149.718 160.502 149.871 160.339 150.006C160.176 150.179 160.031 150.332 159.866 150.429C159.282 150.855 158.755 151.336 158.228 151.816C157.592 152.411 156.955 152.969 156.241 153.417C150.743 156.698 144.544 157.503 136.732 155.912C136.781 155.669 136.867 155.424 136.935 155.199C137.154 154.354 137.374 153.547 137.576 152.759C139.045 146.608 138.832 141.584 136.878 136.944C134.984 132.432 131.698 129.468 127.153 128.141C122.758 126.846 118.374 127.955 115.423 131.073C113.324 133.292 112.215 136.303 112.323 139.56C112.454 143.599 113.749 147.326 116.168 150.594C118.877 154.245 122.552 157.142 127.366 159.449C127.894 159.696 128.161 159.912 128.222 160.078C128.282 160.244 128.18 160.582 127.914 161.092C125.277 166.102 122.662 169.9 119.712 173.018C118.934 173.84 118.117 174.627 117.299 175.338C110.479 181.358 102.224 183.952 91.3687 183.469C93.9366 178.648 95.7527 173.587 96.8021 168.416C97.8675 163.152 98.1428 157.612 97.6695 151.943C96.8952 142.799 93.4711 136.188 87.2359 131.665C78.3594 125.26 68.3968 123.375 57.611 126.076C53.0043 127.228 49.2795 129.287 46.5102 132.213C46.2387 132.5 45.9854 132.768 45.733 133.073C40.0169 139.919 38.3606 148.068 40.8133 157.277C42.9352 165.304 47.5196 172.107 54.3932 177.487C60.0668 181.912 66.7861 185.08 75.5697 187.445C76.5458 187.716 77.4838 187.951 78.4972 188.221C78.7226 188.29 78.9662 188.339 79.2288 188.406L79.2107 188.425L79.1926 188.444C74.6549 192.09 69.6989 194.761 64.4334 196.341C53.33 199.684 41.6909 199.149 28.8642 194.734C26.476 193.925 24.0998 192.873 21.8 191.893C21.1589 191.613 20.5369 191.351 19.8958 191.07C18.8964 190.632 17.7118 190.236 16.4253 190.868C16.0028 191.085 15.6377 191.356 15.3481 191.662C14.787 192.255 14.5087 192.97 14.4951 193.827C14.454 195.71 15.9638 196.413 17.0397 196.924C26.854 201.533 36.1447 204.052 45.4746 204.614C55.065 205.169 64.2576 203.462 72.7918 199.5ZM123.912 149.076C120.767 146.499 119.076 143.267 118.74 139.178C118.599 137.449 119.005 135.985 119.91 135.028C121.069 133.804 122.96 133.491 125.084 134.159C127.846 135.033 129.837 136.952 130.977 139.808C132.017 142.388 132.963 146.255 130.962 153.389C130.894 153.652 130.822 153.728 130.804 153.747L130.786 153.766C130.786 153.766 130.693 153.788 130.372 153.629C127.858 152.301 125.661 151.021 123.97 149.13L123.932 149.094L123.912 149.076ZM61.7638 174.563C59.2041 172.939 57.5693 171.754 56.7447 170.902C51.7883 166.139 48.667 161.047 46.8933 154.837C45.9021 151.325 45.8566 147.656 46.7589 143.905C47.4605 140.98 48.7519 138.504 50.58 136.572C52.571 134.468 55.2305 132.96 58.485 132.087C67.472 129.678 75.92 131.363 83.641 137.074C87.5972 140.02 90.0681 144.497 90.9773 150.433C92.5896 160.914 90.9987 170.756 86.2901 179.679C86.0599 180.114 85.8469 180.492 85.6881 180.813C85.2288 181.72 84.9283 182.306 84.6749 182.574C84.4396 182.822 84.2715 182.808 82.9965 182.508C82.4903 182.392 81.8895 182.222 81.0844 182.077C73.8912 180.636 67.3947 178.115 61.7638 174.563Z" fill="#319795" fill-opacity="0.2"/>
<path d="M93.8022 52.0735C93.3806 52.3034 93.0549 52.6292 92.7291 52.9358L92.6908 52.9742C92.3075 53.3383 91.9434 53.7215 91.5793 54.1048C90.9853 54.718 90.3529 55.3504 89.7013 55.9444C89.2031 56.3852 88.724 56.8451 88.2641 57.2858C87.3059 58.2057 86.3095 59.1447 85.2172 59.9687C85.1788 59.7579 85.198 59.5471 85.198 59.3363C85.198 59.2021 85.2172 59.0872 85.198 58.953C85.1788 58.1098 85.1597 57.2475 85.1597 56.4235C85.1405 55.1779 85.1214 53.894 85.083 52.6292C85.0255 51.1728 84.0865 50.1763 82.726 50.1763C82.5152 50.1763 82.2852 50.1955 82.0553 50.253C80.8863 50.5212 80.2731 51.3644 80.2539 52.7633C80.2156 55.0437 80.2156 57.2667 80.4072 59.5087C80.4456 60.0261 80.4456 60.5819 80.4264 61.0993C80.4264 61.1759 80.4264 61.2526 80.4264 61.3292L80.4072 61.3101C80.3881 61.2909 80.3689 61.2718 80.3498 61.2526C79.5257 60.3902 78.6826 59.547 77.8586 58.6847C76.7471 57.5349 75.5973 56.366 74.4667 55.2162C74.3517 55.1012 74.2367 54.9863 74.1409 54.8713C73.7193 54.4305 73.2786 53.9706 72.7612 53.5874C72.3779 53.2999 71.8988 53.1658 71.4006 53.1658C70.7299 53.1658 70.0592 53.434 69.6184 53.8939C68.8328 54.718 68.8711 55.657 69.7143 56.7876C69.9825 57.1517 70.2892 57.4583 70.5958 57.7649C70.6532 57.8224 70.7107 57.8799 70.7682 57.9566C71.3623 58.5698 71.9563 59.183 72.5504 59.7962C73.7193 61.0034 74.9266 62.2299 76.0956 63.4563C76.1722 63.533 76.2489 63.5905 76.3255 63.6671C76.498 63.8012 76.5746 63.8779 76.613 63.9929C76.0381 63.9929 75.4632 63.9929 74.8883 63.9929C74.1984 63.9929 73.5085 63.9929 72.8378 63.9929C71.2856 63.9929 70.0784 63.9929 68.9669 63.9929H68.622C68.2004 63.9929 67.7788 64.0121 67.3572 64.127C66.3032 64.4337 65.7283 65.181 65.7667 66.1775C65.805 67.174 66.4182 67.9405 67.3955 68.1896C67.8171 68.3046 68.2579 68.3237 68.7178 68.3237H69.0052C69.3885 68.3237 69.7717 68.3237 70.155 68.3237C70.6341 68.3237 71.1132 68.3237 71.5731 68.3237C72.0522 68.3237 72.5121 68.3237 72.9911 68.3237C74.0068 68.3237 74.7733 68.3238 75.5015 68.3429H75.5207C75.6165 68.3429 75.6931 68.3429 75.7698 68.3237C75.8464 68.3237 75.9039 68.3046 75.9806 68.3046C76.0764 68.3046 76.2105 68.3046 76.3638 68.4962C76.2872 68.5537 76.1914 68.6303 76.0956 68.707C75.6548 69.0519 75.1949 69.4161 74.7733 69.8376C72.8378 71.7731 71.1323 73.5361 69.5801 75.2033C68.2004 76.6789 68.6603 77.7711 69.3118 78.4227C69.7717 78.8826 70.4041 79.1509 71.0748 79.1509C71.6881 79.1509 72.2821 78.9401 72.7803 78.5568C73.0486 78.346 73.2786 78.0969 73.4894 77.8478C73.6235 77.6945 73.7385 77.5603 73.8726 77.4262C75.674 75.6632 77.4561 73.9385 79.3341 72.0988L80.618 70.8533C80.6372 71.3132 80.6755 71.7539 80.6947 72.2138C80.8097 74.2068 80.9055 76.104 81.0013 78.0203C81.0013 78.1352 81.0013 78.231 81.0205 78.346C81.0396 78.9018 81.0588 79.4575 81.3079 80.0324C81.7295 80.9714 82.5727 81.5654 83.5308 81.5654C83.7033 81.5654 83.8758 81.5463 84.0291 81.5079C85.2363 81.2588 85.8304 80.5306 85.8496 79.2467C85.8496 79.0742 85.8496 78.9018 85.8687 78.7485C85.8879 77.8286 85.9262 76.8704 85.7154 75.9315C85.5621 75.2416 85.5813 74.5134 85.6388 73.6319C85.6962 73.6894 85.7346 73.7469 85.7921 73.8044C86.252 74.3026 86.5969 74.6859 86.9802 75.0691C87.3059 75.3949 87.6126 75.7398 87.9192 76.0848C88.724 76.9471 89.5672 77.8478 90.4487 78.6718C90.9853 79.17 91.5985 79.4192 92.25 79.4192C92.8632 79.4192 93.4573 79.17 93.9172 78.7293C95.2778 77.3879 94.0322 75.989 93.6298 75.5482C92.6524 74.4559 91.6368 73.3828 90.6595 72.3288C90.0463 71.6773 89.433 71.0066 88.8198 70.355C88.3216 69.8185 87.8425 69.2627 87.2868 68.6495C87.191 68.5345 87.0952 68.4387 86.9993 68.3237C88.13 68.2854 89.2989 68.2854 90.5253 68.2854C92.7291 68.2854 94.8754 68.3429 96.9641 68.3812L97.8073 68.4004C97.9989 68.4004 98.2672 68.4196 98.4972 68.4196C98.9571 68.4196 99.5703 68.4004 100.184 68.2662C101.18 68.0363 101.793 67.2506 101.774 66.2158C101.755 65.3151 101.257 64.6253 100.337 64.2804C99.9152 64.1271 99.4745 64.0887 99.0912 64.0887C97.2899 64.0504 95.4502 64.0121 93.6681 63.9929C92.0392 63.9546 90.3912 63.9354 88.7623 63.8971H88.724C88.6282 63.8971 88.5324 63.8971 88.4366 63.9162C88.3599 63.9162 88.2833 63.9354 88.2066 63.9354C88.1683 63.9354 88.13 63.9354 88.0916 63.9354C88.5707 63.4755 89.0689 63.0347 89.548 62.5748C90.9661 61.2526 92.4416 59.892 93.8789 58.5314C94.7604 57.6883 95.661 56.7684 96.6958 55.6378C97.5199 54.7371 97.5965 53.779 96.9258 52.8975C96.4467 52.2843 95.7185 51.9202 94.9712 51.9202C94.5113 51.786 94.1472 51.8818 93.8022 52.0735Z" fill="#319795" fill-opacity="0.2"/>
<path d="M50.2829 31.2241C50.3404 31.2241 50.4171 31.2241 50.4745 31.2241C50.8386 31.2241 51.2219 31.2241 51.6052 31.2241C53.4257 31.2241 55.2845 31.1666 56.99 31.0899C58.2356 31.0324 59.1554 30.2851 59.2896 29.2311C59.4237 28.158 58.5805 27.1998 57.2583 26.8932C56.5684 26.7399 55.9552 26.6633 55.3994 26.6633C55.1503 26.6633 54.9012 26.6824 54.6713 26.7016C53.4065 26.8549 52.1034 26.874 50.9728 26.874C50.7812 26.874 50.5895 26.874 50.3787 26.874C50.1871 26.874 49.9955 26.874 49.7847 26.874C48.6157 26.874 47.6384 26.8932 46.6419 26.989C46.5653 26.989 46.4695 27.0082 46.3928 27.0273C46.297 27.0465 46.182 27.0657 46.1054 27.0657C46.0862 27.0657 46.067 27.0657 46.0479 27.0657C46.527 26.5674 47.006 26.0692 47.4851 25.571C48.8074 24.1912 50.1871 22.7732 51.5285 21.3551C52.1034 20.7419 52.9274 19.5155 51.816 18.289C51.3369 17.7525 50.647 17.4458 49.9571 17.4458C49.4589 17.4458 48.9607 17.5992 48.5199 17.9058C48.0025 18.2699 47.5809 18.7297 47.1593 19.1705C47.0444 19.2855 46.9294 19.4196 46.8144 19.5346C46.5653 19.8029 46.3162 20.0712 46.067 20.3203C45.4347 21.0101 44.764 21.7 44.0166 22.3324C43.825 21.5276 43.825 20.7419 43.825 19.9179C43.825 19.6304 43.825 19.343 43.825 19.0747C43.825 18.7681 43.8058 18.4806 43.8058 18.174C43.7866 17.1967 43.7675 16.2002 43.6525 15.2229C43.4992 13.8815 42.541 13 41.238 13C41.1613 13 41.0846 13 41.008 13C39.6474 13.0958 38.9001 13.9582 38.8617 15.4146C38.8426 16.3536 38.8809 17.3308 38.9767 18.4998C39.1875 20.9335 39.245 22.9839 39.1875 25.0152C37.367 23.1947 35.6615 21.4892 34.1859 19.6113C34.1285 19.5346 34.071 19.4771 34.0135 19.4004C33.7835 19.113 33.5536 18.7872 33.2661 18.5381C32.7679 18.1165 32.1738 17.8866 31.5606 17.8866C30.9666 17.8866 30.4108 18.0974 29.9701 18.4807C28.7436 19.5729 29.3569 20.7419 29.9126 21.5276C30.9666 23.0031 32.2505 24.4787 33.8218 26.0692C33.9177 26.165 34.0135 26.2417 34.1093 26.3183C34.2626 26.4333 34.3776 26.5291 34.4351 26.625C34.1668 26.625 33.8985 26.625 33.6302 26.625C33.2278 26.625 32.8062 26.625 32.4038 26.625C31.7906 26.625 31.2923 26.6249 30.8132 26.6441C29.5293 26.6824 28.3029 26.7782 27.1723 26.9315C25.8309 27.104 24.911 28.0621 25.0068 29.1736C25.1027 30.3042 26.0416 31.1091 27.3639 31.2049C27.4597 31.2049 27.5747 31.2241 27.6705 31.2241C27.9196 31.2241 28.1687 31.2049 28.3987 31.1857C28.5712 31.1666 28.7436 31.1666 28.9161 31.1474L29.2802 31.1283C30.2192 31.1091 31.1965 31.0708 32.193 31.0708C33.3428 31.0708 34.3584 31.1091 35.3741 31.1857C35.3549 31.2049 35.3357 31.2432 35.2974 31.2624C34.9333 31.6265 34.665 31.9331 34.3776 32.2206C33.8793 32.7571 33.4003 33.2745 32.902 33.7919C31.5798 35.1908 30.2192 36.6472 28.9161 38.1036C27.9963 39.1384 27.9005 40.0582 28.6287 40.9781C29.0886 41.553 29.7784 41.8979 30.5066 41.8979C30.9666 41.8979 31.4456 41.7637 31.8672 41.4955C32.2696 41.2463 32.6529 40.9206 32.9595 40.5565C34.8758 38.3336 36.9263 36.2639 38.8617 34.3476C38.9384 34.271 38.9959 34.2135 39.0534 34.1369C39.2067 33.9452 39.3025 33.8494 39.4941 33.8302V34.7309C39.4941 35.689 39.4941 36.6664 39.4941 37.6245C39.4941 38.0461 39.4941 38.4485 39.4941 38.8701C39.4941 39.8474 39.475 40.8631 39.5133 41.8596C39.5708 43.3543 40.5098 44.2741 41.9278 44.2741H41.947C42.6943 44.2741 43.3267 44.0058 43.7483 43.5268C44.1507 43.0668 44.3232 42.4536 44.2274 41.7638C44.1699 41.2272 44.1699 40.6906 44.1891 40.1157C44.1891 39.8666 44.2082 39.5983 44.2082 39.33V36.3023C44.2466 36.3406 44.2849 36.3789 44.3424 36.4172C44.3615 36.4364 44.3999 36.4748 44.419 36.4939L45.2814 37.3179C46.6611 38.6593 48.0983 40.0582 49.5164 41.4188C49.9188 41.8021 50.4171 42.2811 51.1069 42.4536C51.3369 42.5111 51.586 42.5494 51.7968 42.5494C52.5442 42.5494 53.2149 42.2045 53.6939 41.553C54.288 40.7673 54.2113 39.905 53.4448 38.9851C53.2915 38.7935 53.0999 38.621 52.9274 38.4677C52.8699 38.4102 52.7933 38.3527 52.7358 38.2952C52.1992 37.7778 51.6818 37.2604 51.1453 36.743C49.9571 35.5932 48.7307 34.4051 47.5426 33.217C47.0827 32.7571 46.6228 32.2972 46.1054 31.7415C46.0287 31.6648 45.9521 31.5882 45.8754 31.4924C46.527 31.454 47.1402 31.3965 47.7342 31.339C48.6349 31.3007 49.4589 31.2241 50.2829 31.2241Z" fill="#319795" fill-opacity="0.2"/>
<path d="M300.546 93.8581C301.777 92.9569 303.189 91.605 302.979 89.352C302.769 87.0689 301.056 86.2277 299.464 85.5969C297.542 84.8458 295.499 84.3351 293.546 83.8244C292.825 83.6442 292.074 83.4339 291.353 83.2537C290.722 83.0734 290.091 82.9232 289.461 82.743C284.894 81.5113 280.178 80.2496 275.852 78.0566C273.299 76.7648 272.067 75.0225 271.977 72.5291C271.947 71.5077 271.767 70.5163 271.616 69.525C271.556 69.2246 271.496 68.8941 271.466 68.5937C271.376 67.9929 271.286 67.4221 271.196 66.8213C270.265 60.7831 269.303 54.5346 267.291 48.5865C266.63 46.6338 265.939 45.1318 265.128 43.84C264.256 42.4582 262.844 41.647 261.312 41.647C260.021 41.647 258.759 42.2178 257.768 43.2693C256.926 44.1705 256.476 45.2519 256.085 46.3634C253.201 54.2642 249.927 62.1649 246.742 69.7953L246.202 71.0571C245.691 72.2887 245.06 73.4904 244.429 74.662C244.219 75.0525 244.009 75.443 243.829 75.8336C243.168 77.0953 242.296 77.6661 240.945 77.6661C240.734 77.6661 240.494 77.636 240.254 77.636L238.451 77.4257C232.894 76.7348 227.186 76.0438 221.568 75.0225C218.654 74.4817 215.65 74.0011 212.766 73.5504C211.445 73.3402 210.153 73.1299 208.831 72.9196L208.23 72.8295L208.2 73.0398C208.17 73.0398 208.17 73.0398 208.14 73.0398C208.02 73.0398 207.9 73.0398 207.78 73.0398C204.986 73.19 203.153 74.4517 202.642 76.6146C202.042 79.1381 204.054 80.58 205.647 81.4512C207.629 82.5327 209.582 83.7343 211.505 84.9059C214.148 86.4981 216.882 88.1804 219.706 89.5923C221.929 90.7038 224.813 92.1458 227.666 93.7379C228.418 94.1585 229.289 94.6391 229.349 94.8795C229.409 95.1198 228.928 95.9009 228.448 96.6219C227.306 98.4243 226.104 100.257 224.963 102.029C224.272 103.081 223.611 104.132 222.92 105.184C221.809 106.896 220.577 108.909 219.886 111.192C219.315 112.994 218.834 115.097 220.487 116.899C221.388 117.891 222.56 118.371 224.002 118.371C224.813 118.371 225.654 118.221 226.375 118.101C226.675 118.041 226.946 117.921 227.156 117.831C227.306 117.771 227.426 117.711 227.546 117.681C229.95 116.899 232.233 115.908 234.516 114.857L235.357 114.466C239.773 112.453 244.339 110.381 249.206 109.329C249.897 109.179 250.498 109.119 251.008 109.119C252.661 109.119 253.832 109.81 254.914 111.492C257.347 115.187 260.021 118.792 262.634 122.277C263.385 123.298 264.166 124.32 264.917 125.341C265.818 126.573 267.08 128.135 268.702 129.396C269.844 130.268 270.985 130.718 272.127 130.718C272.788 130.718 273.449 130.568 274.08 130.268C275.912 129.426 276.873 127.864 276.934 125.641C276.964 124.95 276.934 124.199 276.843 123.448C276.693 122.006 276.513 120.564 276.363 119.153C276.213 117.711 276.032 116.239 275.882 114.797C275.822 114.316 275.792 113.805 275.732 113.325C275.341 109.81 274.951 106.175 274.861 102.57C274.831 101.669 275.011 101.428 276.002 101.218C281.32 100.077 286.517 98.8749 291.473 97.6132C294.598 96.8622 297.782 95.8708 300.546 93.8581ZM288.62 91.2746C283.693 92.5363 278.616 93.828 273.539 94.7293C273.329 94.7593 273.118 94.7894 272.878 94.8194C272.608 94.8494 272.307 94.8795 272.037 94.9396C268.762 95.5704 267.441 97.1325 267.351 100.407C267.29 103.171 267.531 105.935 267.771 108.608C267.891 109.75 267.981 110.951 268.071 112.123C268.192 113.715 268.402 115.337 268.612 116.899C268.642 117.23 268.702 117.56 268.732 117.891C268.672 117.801 268.612 117.68 268.522 117.56C268.432 117.44 268.372 117.32 268.282 117.17C267.471 116.028 266.63 114.887 265.818 113.775C264.046 111.312 262.183 108.788 260.441 106.265C258.488 103.441 255.875 102.059 252.48 102.059C251.94 102.059 251.369 102.089 250.798 102.179C246.322 102.72 241.786 104.102 236.078 106.656C234.185 107.497 232.263 108.338 230.25 109.209C229.679 109.449 229.078 109.72 228.478 109.99C228.718 109.329 229.079 108.818 229.439 108.308C229.589 108.067 229.769 107.827 229.92 107.587C230.881 106.025 231.902 104.463 232.894 102.93C233.945 101.308 235.027 99.656 236.048 98.0037C238.181 94.5791 237.7 91.9956 234.486 89.412C232.894 88.1203 231.061 87.189 229.319 86.2878C228.868 86.0475 228.388 85.8071 227.937 85.5668C227.186 85.1763 226.405 84.7858 225.654 84.4253C224.362 83.7944 223.01 83.1635 221.809 82.3825C221.899 82.2623 221.989 82.2623 222.049 82.2623C222.229 82.2623 222.469 82.3224 222.71 82.4125C222.95 82.4726 223.16 82.5627 223.401 82.5928C224.993 82.773 226.585 82.9833 228.147 83.1635C231.662 83.5841 235.297 83.9746 238.872 84.5154C239.593 84.6355 240.314 84.6656 240.975 84.6656C245.421 84.6656 248.725 82.3825 251.068 77.7261C253.141 73.5805 254.884 69.2246 256.596 64.9888C257.407 63.0061 258.218 60.9633 259.059 58.9806C259.63 57.6588 260.111 56.337 260.651 54.9552C260.772 54.6548 260.892 54.3243 261.012 53.9938C261.342 54.7148 261.493 55.4658 261.613 56.2469C261.673 56.6074 261.733 56.9679 261.823 57.3584C262.995 62.2851 263.686 67.4221 264.376 72.3789C264.497 73.1599 264.587 73.941 264.707 74.7521C265.248 78.5673 267.2 81.4512 270.655 83.524C274.47 85.8071 278.736 87.0689 282.822 88.3005C283.272 88.4207 283.723 88.5709 284.173 88.6911C285.796 89.1717 287.478 89.6223 289.1 90.0129C289.761 90.1931 290.452 90.3433 291.113 90.5235L291.233 90.5536C291.263 90.5536 291.293 90.5836 291.323 90.5836C290.452 90.7939 289.551 91.0342 288.62 91.2746Z" fill="#319795" fill-opacity="0.2"/>
<path d="M186.36 27.4077C186.21 28.2488 186.03 29.09 185.85 29.9011C185.399 32.0039 184.948 34.1368 184.918 36.3599C184.888 37.8919 185.309 39.1536 186.18 40.0248C186.991 40.8359 188.103 41.2866 189.424 41.2866H189.455C191.017 41.2866 192.399 40.5956 193.51 39.2438C194.111 38.5228 194.682 37.8018 195.222 37.0808C195.703 36.48 196.184 35.8491 196.664 35.2483C200.059 31.0726 203.183 27.3175 206.728 23.8328C208.531 22.0604 209.582 21.3995 210.633 21.3995C211.685 21.3995 212.886 22.0904 214.479 23.2019C216.822 24.8542 219.135 26.5966 221.388 28.3089C224.542 30.7122 227.817 33.1755 231.211 35.3685L231.271 35.4286C232.683 36.3298 234.125 37.2911 235.808 37.8619C236.499 38.1022 237.189 38.2224 237.79 38.2224C239.142 38.2224 240.284 37.6516 241.095 36.6002C242.447 34.8578 241.726 33.1755 240.855 31.7936C240.254 30.8323 239.623 29.9011 239.022 28.9998C238.481 28.1887 237.941 27.3476 237.4 26.5365C234.696 22.2406 231.692 17.0436 229.95 11.0955C229.709 10.2844 229.499 9.50328 229.589 9.26296C229.709 9.05267 230.34 8.78232 231.211 8.42183L231.301 8.3918C232.713 7.82103 234.155 7.28029 235.567 6.73955C238.481 5.62804 241.515 4.48646 244.369 3.07454C246.322 2.11324 248.335 0.971695 249.897 -0.890839C250.828 -1.97231 251.219 -3.17395 251.038 -4.31551C250.888 -5.45706 250.197 -6.41837 249.056 -7.16939C248.214 -7.74017 247.253 -7.98051 246.322 -8.16075C243.348 -8.76157 240.344 -8.76157 237.43 -8.76157C236.589 -8.76157 235.747 -8.76156 234.906 -8.79161C234.426 -8.79161 233.945 -8.79161 233.434 -8.79161C232.353 -8.79161 231.271 -8.76157 230.22 -8.76157C229.168 -8.73153 228.087 -8.7315 227.036 -8.7315C224.452 -8.7315 222.469 -8.82165 220.637 -9.06198C218.083 -9.39243 216.822 -10.4739 215.981 -13.1175C215.26 -15.4306 214.629 -17.8039 213.998 -20.087C213.067 -23.5717 212.105 -27.1766 210.814 -30.6613C210.273 -32.1634 209.642 -33.7255 208.59 -35.0774C207.659 -36.279 206.247 -37 204.775 -37C203.814 -37 202.943 -36.7296 202.192 -36.1889C200.69 -35.1074 200.359 -33.3951 200.149 -32.1634C199.668 -29.5198 199.278 -26.7861 198.887 -24.1725L198.797 -23.5717C198.317 -20.2372 197.836 -16.8726 197.385 -13.5981C197.205 -12.3665 197.055 -11.1348 196.875 -9.9031C196.604 -9.9031 196.334 -9.99322 196.033 -10.0833H196.003C190.236 -12.066 184.107 -13.0874 177.859 -13.0874C176.387 -13.0874 174.885 -13.0274 173.353 -12.9072C172.091 -12.8171 170.649 -12.6669 169.357 -11.9459C168.216 -11.315 167.434 -10.4439 167.134 -9.39242C166.834 -8.34099 167.044 -7.1694 167.705 -6.05789C168.276 -5.06654 169.087 -4.16531 170.198 -3.23404C174.644 0.521068 179.06 4.66672 183.687 9.47326C185.159 10.9753 186.45 12.5975 187.532 14.3098C188.373 15.6316 188.583 16.7431 188.253 18.095C187.502 21.1291 186.901 24.3735 186.36 27.4077ZM182.305 -1.9723C181.133 -3.05377 179.932 -4.1653 178.64 -5.36694L177.739 -6.2081C178.339 -6.23814 178.97 -6.26816 179.571 -6.26816C182.155 -6.26816 184.678 -5.9978 187.472 -5.36694C191.137 -4.58588 194.712 -3.35418 197.686 -2.27271C198.407 -2.00234 199.128 -1.8822 199.819 -1.8822C201.17 -1.8822 202.372 -2.39288 203.243 -3.29411C204.175 -4.25542 204.625 -5.63731 204.565 -7.13936C204.475 -9.39242 204.775 -11.6455 205.076 -13.8084C205.256 -15.1903 205.466 -16.6022 205.556 -18.0141C205.617 -18.9454 205.797 -19.8767 206.007 -20.868C206.007 -20.8981 206.007 -20.9281 206.037 -20.9582C206.037 -20.8981 206.067 -20.838 206.097 -20.7779C206.368 -19.8467 206.668 -18.9154 206.938 -17.9841C207.659 -15.6109 208.38 -13.1776 209.011 -10.7443C210.093 -6.41838 212.946 -3.77477 217.783 -2.66326C219.826 -2.1826 222.049 -1.9723 224.602 -1.9723H224.753C226.585 -1.9723 228.598 -1.9723 231.031 -1.9723C232.473 -1.9723 233.945 -1.9723 235.387 -1.9723C236.408 -1.9723 237.46 -1.9723 238.481 -1.9723C238.391 -1.94226 238.271 -1.91224 238.181 -1.8822C236.168 -1.0711 234.095 -0.290028 232.113 0.491034C230.55 1.09185 228.898 1.72269 227.306 2.35355C222.71 4.15601 221.388 6.61937 222.379 11.456C223.01 14.46 224.272 17.2539 225.504 19.9876L225.624 20.288C225.894 20.8588 226.164 21.3995 226.465 21.9402C226.795 22.5711 227.126 23.1719 227.366 23.7727C226.705 23.2921 226.014 22.8415 225.353 22.3908C223.04 20.7686 220.637 19.1164 218.354 17.374C215.68 15.3312 213.307 14.3699 210.904 14.3699C208.41 14.3699 205.797 15.4214 202.673 17.7345C200.6 19.2666 198.947 21.2193 197.355 23.1118C196.454 24.1633 195.523 25.2748 194.561 26.2661C194.471 26.3863 194.381 26.4764 194.291 26.5966C194.351 26.2661 194.411 25.9056 194.471 25.5752C194.772 23.953 195.072 22.2406 195.493 20.6184C196.574 16.3827 195.763 12.6276 192.969 9.14282C189.424 4.75685 185.399 0.88158 182.305 -1.9723Z" fill="#319795" fill-opacity="0.2"/>
<path d="M199.433 187.072C198.949 186.757 198.345 186.588 197.716 186.588C196.821 186.588 196.023 186.927 195.49 187.532C195.007 188.088 194.644 188.765 194.329 189.418L194.305 189.467C190.725 196.481 187 203.835 182.864 212.01C182.598 212.518 182.356 213.075 182.211 213.655C181.969 214.623 182.114 215.493 182.622 216.146C183.179 216.848 184.122 217.235 185.283 217.235H185.331C185.38 217.235 185.404 217.235 185.452 217.235C187.024 217.235 187.702 215.88 188.282 214.695C190.653 210.003 193.072 205.213 195.418 200.593C196.458 198.561 197.474 196.53 198.514 194.498C198.683 194.135 198.877 193.796 199.07 193.433C199.554 192.514 200.038 191.571 200.473 190.579C201.054 189.152 200.691 187.87 199.433 187.072Z" fill="#319795" fill-opacity="0.2"/>
<path d="M200.788 213.97C201.368 214.381 201.997 214.598 202.626 214.598C203.255 214.598 203.86 214.405 204.489 213.994C208.77 211.164 213.317 208.068 217.72 204.705C218.058 204.439 219.123 203.641 219.05 202.432C219.026 201.029 218.107 199.964 216.704 199.722C216.486 199.674 216.268 199.674 216.051 199.674C215.156 199.674 214.285 200.013 213.414 200.69C209.786 203.52 206.037 206.06 201.852 208.866C201.344 209.204 200.739 209.64 200.28 210.196C199.748 210.825 199.53 211.502 199.627 212.204C199.675 212.857 200.11 213.486 200.788 213.97Z" fill="#319795" fill-opacity="0.2"/>
<path d="M115.644 275.892C116.104 276.134 116.588 276.255 117.096 276.255C118.136 276.255 119.055 275.747 119.66 274.852C119.853 274.562 119.998 274.247 120.119 273.957C120.192 273.788 120.264 273.642 120.337 273.497C122.732 268.853 125.029 264.789 127.327 261.113C135.068 248.704 144.066 237.166 154.104 226.765C157.345 223.403 159.595 219.581 160.974 215.058C163.15 207.898 165.11 202.02 167.093 196.554C167.77 194.667 168.496 192.853 169.585 191.208C169.609 191.16 169.657 191.111 169.681 191.063C169.972 190.628 170.31 190.12 170.649 190.12C170.673 190.12 170.697 190.12 170.697 190.12C170.939 190.144 171.012 190.289 171.084 191.015C171.108 191.184 171.108 191.353 171.157 191.498C171.882 195.393 171.713 199.287 171.423 202.915L171.35 203.883C170.842 210.341 170.286 217.017 169.052 223.476C168.375 227.055 168.206 230.611 168.544 234.409C169.077 240.287 168.907 246.068 168.061 251.631C166.948 258.984 164.215 266.265 159.692 273.908C159.111 274.9 158.458 275.916 157.853 276.884C157.273 277.779 156.692 278.722 156.136 279.641C155.289 281.068 155.459 282.278 156.62 283.269C157.152 283.729 157.877 283.971 158.627 283.971C159.256 283.971 159.837 283.802 160.345 283.487C161.215 282.931 161.748 282.084 162.207 281.334C163.126 279.907 164.166 278.238 165.11 276.569C169.633 268.635 172.318 261.766 173.6 254.969C174.737 248.922 175.075 242.609 174.688 235.691C174.664 235.328 174.93 235.013 175.293 234.965L175.728 234.917C176.841 234.796 177.881 234.675 178.946 234.626C182.259 234.505 185.646 234.433 189.032 234.433C192.152 234.433 195.321 234.481 198.49 234.602C201.538 234.699 204.44 235.4 207.391 236.707C209.665 237.723 211.019 239.561 211.648 242.512C212.011 244.157 211.527 245.584 210.197 246.866C209.157 247.858 207.899 248.535 206.182 248.97C203.352 249.72 200.328 250.059 196.942 250.059C195.442 250.059 193.918 249.986 192.225 249.841C190.991 249.744 189.903 249.599 188.984 248.994L188.863 248.922C188.113 248.438 187.484 248.027 187.436 247.253C187.387 246.503 187.944 246.164 188.863 245.705L188.935 245.656C189.298 245.463 189.685 245.342 190.121 245.221C190.314 245.173 190.508 245.1 190.701 245.027C192.467 244.423 194.281 244.278 196.192 244.133C196.385 244.108 196.555 244.108 196.748 244.084C198.514 243.939 199.627 242.899 199.602 241.399C199.578 240.625 199.24 239.271 197.014 238.787C196.942 238.763 196.893 238.763 196.821 238.738C196.506 238.666 196.192 238.593 195.853 238.593C195.805 238.593 195.757 238.593 195.708 238.593C193.12 238.787 190.048 239.125 187.097 240.262C185.38 240.915 184.025 241.835 182.937 243.044C180.977 245.245 180.735 247.591 182.187 250.252C182.284 250.446 182.404 250.591 182.525 250.712C182.671 250.857 182.719 251.05 182.671 251.268C182.646 251.462 182.525 251.655 182.332 251.752C179.816 253.203 178.075 254.993 176.986 257.218C175.124 261.089 176.261 265.539 179.816 268.079C180.034 268.224 180.252 268.345 180.494 268.442H180.518C180.687 268.539 180.832 268.684 180.881 268.877C180.929 269.071 180.905 269.264 180.784 269.434C179.236 271.635 178.655 273.812 179.018 275.916C179.405 277.996 180.711 279.98 182.961 281.794C183.251 282.012 183.299 282.423 183.058 282.737C181.824 284.382 181.219 285.858 181.098 287.527C180.905 290.284 181.921 292.655 184.34 294.928C184.993 295.533 184.968 295.872 184.533 296.573C182.961 299.234 181.485 301.846 179.816 304.725C179.478 305.305 179.163 305.861 178.825 306.442C177.325 309.03 175.801 311.715 174.326 314.376C173.358 316.117 173.551 317.424 174.954 318.367C175.511 318.73 176.14 318.923 176.769 318.923C177.736 318.923 178.631 318.464 179.26 317.641C179.671 317.085 180.01 316.48 180.348 315.9C180.445 315.706 180.566 315.513 180.687 315.319C181.34 314.206 181.969 313.07 182.622 311.957C185.017 307.772 187.508 303.443 189.927 299.185C190.338 298.436 190.653 298.29 191.064 298.29C191.185 298.29 191.33 298.315 191.499 298.339C192.418 298.532 193.483 298.726 194.571 298.726C194.789 298.726 195.007 298.726 195.2 298.702C198.562 298.46 202.384 298.17 206.012 297.25C208.697 296.597 211.769 295.63 214.285 293.55C216.123 292.026 217.26 290.018 217.429 287.889C217.599 285.761 216.849 283.584 215.277 281.794L215.252 281.77C215.107 281.6 215.035 281.359 215.083 281.141C215.131 280.947 215.228 280.778 215.422 280.681C217.986 279.327 220.525 277.706 220.937 274.15C221.396 270.28 219.268 267.765 217.357 266.023C217.212 265.902 217.139 265.709 217.139 265.515C217.139 265.322 217.212 265.152 217.357 265.031C219.727 262.903 220.743 260.339 220.356 257.436C219.993 254.679 218.663 252.211 216.268 249.914C216.026 249.696 215.978 249.333 216.147 249.067C217.067 247.591 217.937 245.971 217.865 243.987C217.671 238.618 215.373 234.675 211.044 232.256C208.48 230.829 205.625 230.055 203.448 229.571C201.513 229.136 199.554 229.087 197.667 229.039C197.014 229.015 196.337 229.015 195.684 228.966C192.733 228.821 190.314 228.749 188.113 228.749C185.694 228.749 183.493 228.821 181.389 228.991C181.147 229.015 180.905 229.039 180.663 229.039C179.308 229.16 177.905 229.257 176.527 229.257C175.995 229.257 175.511 229.232 175.027 229.208C174.688 229.184 174.398 228.87 174.422 228.531C174.446 228.047 174.519 227.588 174.592 227.176L174.64 226.959C175.341 222.895 176.091 218.71 176.502 214.526L176.648 213.002C177.035 208.914 177.446 204.705 177.688 200.545C177.881 197.11 177.93 193.071 176.817 189.128C175.922 185.959 173.648 184 170.891 184C169.173 184 167.408 184.798 165.932 186.25C164.844 187.314 163.997 188.475 163.417 189.684C162.788 191.039 162.062 192.563 161.481 194.135C159.474 199.553 157.49 205.528 155.41 212.446C154.177 216.558 151.951 220.379 148.952 223.5C136.422 236.586 125.803 250.905 117.362 266.071C116.128 268.273 115.185 270.135 114.362 271.901C113.588 273.642 114.072 275.118 115.644 275.892ZM187.46 287.043C188.379 285.64 189.226 284.31 190.991 284.31C191.016 284.31 191.064 284.31 191.088 284.31C191.475 284.31 191.886 284.334 192.37 284.334C192.709 284.334 193.072 284.334 193.41 284.334C193.749 284.334 194.112 284.334 194.45 284.334C197.401 284.31 200.376 283.995 203.231 283.681L203.811 283.608C204.174 283.56 204.561 283.56 204.948 283.56C206.496 283.56 208.044 283.898 209.423 284.527C210.487 285.011 211.14 285.785 211.261 286.753C211.406 287.744 210.947 288.784 210.003 289.583C209.278 290.212 208.359 290.719 207.222 291.106C203.182 292.485 198.853 293.187 194.305 293.187C194.16 293.187 194.039 293.187 193.894 293.187C191.233 293.163 189.298 292.292 187.944 290.502C186.976 289.123 186.807 288.059 187.46 287.043ZM193.386 278.94H193.362C193.313 278.94 193.265 278.94 193.217 278.916C192.612 278.795 191.983 278.722 191.306 278.674C190.242 278.577 189.153 278.48 188.113 278.093C186.879 277.634 185.936 277.126 185.404 276.061C185.089 275.457 184.993 274.876 185.089 274.247C185.21 273.352 185.767 272.578 186.613 272.143C187.17 271.852 187.581 271.393 187.992 270.982C188.645 270.304 189.201 269.724 190.266 269.724C190.314 269.724 190.387 269.724 190.435 269.724C192.152 269.821 193.846 269.869 195.442 269.869C198.151 269.869 200.788 269.724 203.279 269.458H203.376C205.238 269.264 207.149 269.047 209.036 268.756C209.229 268.732 209.423 268.708 209.616 268.708C211.939 268.708 214.551 270.595 214.962 272.578C215.18 273.594 214.793 274.416 213.729 275.166C212.495 276.013 211.044 276.642 209.254 277.053C204.029 278.287 198.635 278.625 193.386 278.94ZM212.906 261.282C211.769 262.153 210.366 262.758 208.48 263.145C204.247 264.064 199.965 264.185 195.95 264.185C195.369 264.185 194.789 264.185 194.184 264.185C193.265 264.185 192.346 264.185 191.451 264.209C190.556 264.209 189.637 264.233 188.742 264.233C187.411 264.233 186.323 264.209 185.283 264.161C184.001 264.112 183.009 263.58 182.501 262.685C181.993 261.766 182.066 260.581 182.695 259.42C183.517 257.92 184.848 257.001 186.178 256.227C187.508 255.453 188.621 255.114 189.879 255.114C190.217 255.114 190.604 255.138 190.967 255.187C193.241 255.501 195.466 255.646 197.595 255.646C201.852 255.646 205.94 255.017 209.737 253.808C210.221 253.663 210.632 253.566 210.971 253.566C211.648 253.566 212.18 253.88 212.785 254.679C213.414 255.501 214.067 256.469 214.236 257.678C214.478 259.274 214.067 260.411 212.906 261.282Z" fill="#319795" fill-opacity="0.2"/>
<path d="M341.467 -30.2332C341.689 -29.8071 342.008 -29.4747 342.308 -29.1428L342.345 -29.1037C342.701 -28.7131 343.077 -28.3412 343.453 -27.9694C344.054 -27.363 344.673 -26.7178 345.254 -26.0543C345.684 -25.5472 346.134 -25.0589 346.566 -24.5901C347.466 -23.6134 348.384 -22.598 349.186 -21.4891C348.974 -21.4551 348.764 -21.4785 348.553 -21.4828C348.419 -21.4856 348.305 -21.5071 348.17 -21.4906C347.327 -21.4887 346.464 -21.4871 345.64 -21.5039C344.395 -21.5101 343.11 -21.5171 341.845 -21.5045C340.388 -21.4767 339.373 -20.5582 339.345 -19.198C339.341 -18.9872 339.355 -18.7569 339.408 -18.5258C339.652 -17.3517 340.483 -16.7214 341.881 -16.6737C344.16 -16.5889 346.383 -16.5436 348.628 -16.6895C349.146 -16.7173 349.702 -16.706 350.219 -16.6763C350.295 -16.6747 350.372 -16.6732 350.449 -16.6716L350.429 -16.6528C350.409 -16.6341 350.39 -16.6153 350.37 -16.5965C349.491 -15.7903 348.631 -14.9645 347.752 -14.1582C346.58 -13.0704 345.388 -11.9447 344.215 -10.8377C344.098 -10.7251 343.981 -10.6125 343.864 -10.519C343.415 -10.1065 342.946 -9.67522 342.552 -9.16573C342.257 -8.78841 342.113 -8.31216 342.103 -7.81402C342.089 -7.14346 342.344 -6.46742 342.795 -6.0174C343.602 -5.21508 344.542 -5.23427 345.69 -6.05423C346.059 -6.31504 346.372 -6.61534 346.685 -6.91564C346.743 -6.97194 346.802 -7.02825 346.88 -7.08416C347.505 -7.6656 348.13 -8.24703 348.755 -8.82847C349.986 -9.97257 351.237 -11.1546 352.487 -12.2983C352.565 -12.3734 352.624 -12.4489 352.702 -12.5239C352.84 -12.6936 352.918 -12.7687 353.034 -12.8047C353.022 -12.2299 353.011 -11.6551 352.999 -11.0804C352.985 -10.3906 352.971 -9.70091 352.957 -9.03035C352.925 -7.47846 352.901 -6.27144 352.878 -5.16021L352.871 -4.81535C352.863 -4.39385 352.873 -3.97196 352.979 -3.54812C353.265 -2.48812 354 -1.89812 354.997 -1.91613C355.994 -1.93415 356.773 -2.53162 357.042 -3.50366C357.166 -3.92281 357.194 -4.36308 357.203 -4.8229L357.209 -5.11029C357.217 -5.49347 357.225 -5.87665 357.232 -6.25983C357.242 -6.73881 357.252 -7.21779 357.261 -7.67761C357.271 -8.15658 357.28 -8.6164 357.29 -9.09538C357.311 -10.1108 357.326 -10.8772 357.36 -11.6048L357.361 -11.624C357.363 -11.7198 357.364 -11.7964 357.347 -11.8734C357.348 -11.9501 357.33 -12.0079 357.332 -12.0846C357.334 -12.1804 357.337 -12.3145 357.531 -12.4639C357.587 -12.3861 357.662 -12.2887 357.737 -12.1913C358.072 -11.7436 358.427 -11.2764 358.84 -10.8463C360.736 -8.87182 362.464 -7.13074 364.099 -5.54488C365.546 -4.13536 366.647 -4.57293 367.312 -5.21106C367.781 -5.66151 368.062 -6.28829 368.076 -6.95886C368.088 -7.57195 367.89 -8.17018 367.517 -8.67612C367.311 -8.94864 367.067 -9.18363 366.822 -9.39946C366.672 -9.53669 366.54 -9.65438 366.409 -9.79123C364.683 -11.6281 362.995 -13.445 361.194 -15.3601L359.974 -16.6691C360.435 -16.6789 360.876 -16.7083 361.336 -16.7181C363.331 -16.7924 365.23 -16.8495 367.148 -16.9063C367.263 -16.904 367.359 -16.902 367.474 -16.9188C368.03 -16.9267 368.586 -16.9345 369.166 -17.1718C370.113 -17.5742 370.724 -18.4051 370.744 -19.3631C370.747 -19.5355 370.732 -19.7083 370.696 -19.8624C370.472 -21.0745 369.756 -21.6832 368.473 -21.7286C368.3 -21.7321 368.128 -21.7356 367.975 -21.7579C367.056 -21.7958 366.099 -21.8536 365.156 -21.662C364.463 -21.5228 363.735 -21.5568 362.855 -21.6322C362.914 -21.6885 362.972 -21.7257 363.03 -21.782C363.538 -22.2316 363.928 -22.5687 364.319 -22.9441C364.651 -23.2631 365.003 -23.5626 365.354 -23.8622C366.232 -24.6493 367.15 -25.4739 367.992 -26.3385C368.501 -26.8648 368.762 -27.4728 368.776 -28.1242C368.788 -28.7373 368.551 -29.3363 368.12 -29.8051C366.806 -31.1927 365.382 -29.9759 364.934 -29.5825C363.822 -28.6276 362.728 -27.6341 361.654 -26.6784C360.99 -26.0786 360.307 -25.4792 359.644 -24.8794C359.097 -24.3922 358.531 -23.9245 357.907 -23.3814C357.79 -23.288 357.692 -23.1941 357.576 -23.1007C357.56 -24.2318 357.584 -25.4005 357.609 -26.6267C357.654 -28.83 357.755 -30.9747 357.836 -33.0622L357.872 -33.9048C357.876 -34.0964 357.901 -34.3643 357.906 -34.5942C357.915 -35.054 357.908 -35.6675 357.787 -36.2833C357.577 -37.2842 356.804 -37.9133 355.769 -37.9153C354.868 -37.9145 354.168 -37.4304 353.805 -36.5178C353.643 -36.0994 353.596 -35.6595 353.588 -35.2763C353.513 -33.4762 353.437 -31.6377 353.381 -29.8563C353.31 -28.2285 353.257 -26.5812 353.186 -24.9535L353.185 -24.9152C353.183 -24.8194 353.181 -24.7236 353.198 -24.6274C353.197 -24.5508 353.214 -24.4737 353.213 -24.3971C353.212 -24.3588 353.211 -24.3205 353.21 -24.2821C352.76 -24.7705 352.33 -25.2776 351.88 -25.766C350.587 -27.2107 349.256 -28.7136 347.925 -30.1783C347.1 -31.0768 346.199 -31.996 345.09 -33.0536C344.206 -33.8958 343.25 -33.992 342.355 -33.3394C341.732 -32.8729 341.353 -32.1523 341.338 -31.4051C341.194 -30.948 341.283 -30.582 341.467 -30.2332Z" fill="#319795" fill-opacity="0.2"/>
<path d="M319.735 12.8522C319.737 12.7947 319.738 12.7181 319.739 12.6606C319.747 12.2966 319.755 11.9134 319.762 11.5302C319.799 9.71012 319.78 7.85051 319.738 6.14379C319.706 4.89728 318.977 3.96242 317.926 3.80683C316.856 3.65085 315.881 4.47433 315.548 5.79006C315.38 6.47666 315.291 7.08819 315.28 7.6438C315.275 7.89287 315.289 8.14233 315.303 8.37263C315.431 9.64025 315.423 10.9435 315.4 12.0738C315.396 12.2654 315.393 12.457 315.388 12.6678C315.384 12.8594 315.38 13.051 315.376 13.2617C315.352 14.4304 315.352 15.4079 315.427 16.4061C315.426 16.4828 315.443 16.579 315.46 16.656C315.478 16.7522 315.494 16.8675 315.493 16.9442C315.492 16.9633 315.492 16.9825 315.492 17.0016C315.003 16.5125 314.515 16.0234 314.027 15.5342C312.674 14.1842 311.284 12.7758 309.894 11.4058C309.293 10.8185 308.083 9.96968 306.834 11.0559C306.288 11.524 305.967 12.2074 305.953 12.8972C305.943 13.3953 306.086 13.8966 306.384 14.3435C306.737 14.8682 307.189 15.2991 307.621 15.7295C307.733 15.8468 307.865 15.9645 307.978 16.0818C308.241 16.3364 308.504 16.5909 308.748 16.845C309.425 17.4913 310.101 18.176 310.718 18.9361C309.909 19.1112 309.124 19.0952 308.3 19.0784C308.013 19.0726 307.725 19.0667 307.457 19.0613C307.15 19.055 306.863 19.0683 306.556 19.0621C305.579 19.0613 304.582 19.0602 303.603 19.1552C302.258 19.2812 301.357 20.2211 301.331 21.524C301.329 21.6006 301.328 21.6772 301.326 21.7539C301.394 23.1161 302.241 23.8809 303.697 23.9489C304.635 23.9872 305.613 23.9688 306.783 23.8968C309.221 23.7356 311.272 23.7199 313.302 23.8188C311.445 25.6018 309.705 27.2722 307.797 28.7092C307.719 28.7651 307.661 28.8214 307.583 28.8773C307.291 29.1014 306.96 29.3247 306.705 29.607C306.274 30.0965 306.032 30.6858 306.019 31.2989C306.007 31.8928 306.207 32.4527 306.581 32.9012C307.648 34.1496 308.829 33.5603 309.626 33.0207C311.123 31.997 312.624 30.7435 314.246 29.2048C314.344 29.111 314.423 29.0167 314.501 28.9225C314.619 28.7716 314.717 28.6586 314.814 28.6031C314.809 28.8713 314.803 29.1395 314.798 29.4077C314.79 29.8101 314.781 30.2316 314.773 30.6339C314.76 31.247 314.75 31.7451 314.76 32.2245C314.772 33.5089 314.843 34.7371 314.973 35.8706C315.118 37.2152 316.057 38.1544 317.17 38.0813C318.303 38.0085 319.127 37.0861 319.249 35.7661C319.251 35.6703 319.273 35.5557 319.275 35.4599C319.28 35.2109 319.266 34.9614 319.251 34.7311C319.236 34.5583 319.239 34.3858 319.223 34.213L319.212 33.8486C319.212 32.9094 319.193 31.9315 319.214 30.9353C319.237 29.7857 319.296 28.7711 319.393 27.7572C319.412 27.7767 319.45 27.7967 319.468 27.8354C319.825 28.2068 320.126 28.4813 320.408 28.7745C320.934 29.2836 321.441 29.7731 321.949 30.2818C323.32 31.6323 324.749 33.0223 326.178 34.3548C327.194 35.2955 328.112 35.41 329.046 34.7007C329.63 34.2526 329.989 33.5699 330.004 32.8419C330.013 32.382 329.889 31.9003 329.629 31.4734C329.389 31.0659 329.071 30.6761 328.713 30.3622C326.53 28.401 324.502 26.3088 322.626 24.3347C322.551 24.2565 322.494 24.1978 322.419 24.1388C322.23 23.9816 322.136 23.8838 322.121 23.6919L323.022 23.7102C323.98 23.7297 324.957 23.7497 325.915 23.7692C326.336 23.7778 326.739 23.786 327.16 23.7946C328.137 23.8145 329.152 23.8543 330.149 23.8363C331.645 23.8093 332.584 22.8892 332.613 21.4715L332.613 21.4523C332.628 20.7051 332.373 20.0674 331.902 19.6361C331.451 19.2244 330.841 19.0395 330.15 19.1212C329.612 19.1678 329.075 19.1568 328.501 19.126C328.252 19.1209 327.984 19.0963 327.716 19.0908L324.689 19.0291C324.728 18.9916 324.767 18.954 324.806 18.8973C324.826 18.8786 324.865 18.841 324.885 18.8223L325.726 17.9769C327.095 16.6248 328.523 15.2163 329.912 13.8263C330.304 13.4318 330.793 12.9434 330.979 12.2572C331.042 12.0284 331.085 11.7802 331.089 11.5694C331.105 10.8222 330.773 10.1446 330.132 9.65235C329.358 9.04241 328.495 9.10147 327.559 9.84909C327.365 9.99846 327.188 10.1865 327.031 10.3558C326.973 10.4122 326.914 10.4876 326.855 10.5439C326.327 11.0698 325.799 11.5766 325.271 12.1025C324.097 13.2669 322.884 14.4689 321.672 15.6326C321.203 16.083 320.734 16.5335 320.168 17.0394C320.089 17.1145 320.011 17.1896 319.914 17.2643C319.889 16.6121 319.844 15.9978 319.798 15.4027C319.778 14.5014 319.719 13.676 319.735 12.8522Z" fill="#319795" fill-opacity="0.2"/>
</svg>
