<svg width="393" height="359" viewBox="0 0 393 359" fill="none" xmlns="http://www.w3.org/2000/svg">
<path d="M277.805 386.875C276.96 386.597 276.129 386.603 275.297 386.608C274.894 386.606 274.525 386.621 274.164 386.576C267.647 386.024 262.999 381.883 261.735 375.516C261.521 374.499 261.495 373.445 261.45 372.339C261.429 371.542 261.407 370.745 261.29 369.924C261.201 369.179 261.146 368.451 261.056 367.707C260.789 365.07 260.486 362.331 259.953 359.673C258.927 354.717 256.141 350.639 251.647 347.507C250.805 346.912 249.972 346.343 249.07 345.741L248.36 345.273C248.415 345.023 248.48 344.799 248.536 344.549C248.776 343.516 249.009 342.543 249.232 341.545C250.541 335.71 249.867 330.773 247.162 326.436C244.906 322.804 242.831 319.683 240.872 316.895C238.413 313.42 237.318 309.983 237.632 306.711C237.946 303.438 239.66 300.306 242.75 297.407L242.776 297.398C243.62 296.612 244.481 295.792 245.202 294.82C245.672 294.194 245.795 293.318 245.532 292.49C245.241 291.501 244.525 290.689 243.627 290.344C242.462 289.892 241.339 289.885 240.162 290.299C239.6 290.497 239.038 290.781 238.411 291.203C234.56 293.737 231.495 298.092 230.176 302.839C229.093 306.784 228.655 312.889 232.821 319.499C233.34 320.322 233.953 321.083 234.532 321.828C234.996 322.412 235.469 323.022 235.891 323.649C237.21 325.599 238.574 327.677 239.819 329.826C242.169 333.971 242.422 338.366 240.502 342.548C239.121 345.564 238.575 347.279 239.157 348.77C239.784 350.389 241.651 351.284 244.389 352.447C244.7 352.596 245.03 352.797 245.368 353.023C245.48 353.098 245.593 353.173 245.706 353.248C249.554 355.688 251.82 358.943 252.453 362.945C252.73 364.63 252.871 366.42 252.986 368.133C253.072 369.195 253.151 370.317 253.272 371.395C253.334 372.063 253.406 372.756 253.468 373.424C253.647 375.402 253.818 377.44 254.314 379.421C255.444 383.938 258.315 387.929 262.382 390.665C266.346 393.351 271.126 394.601 275.844 394.205C276.426 394.144 277.015 394.022 277.527 393.842C278.166 393.617 278.693 393.317 279.081 392.95C279.909 392.199 280.613 390.687 280.396 389.498C280.153 388.319 278.874 387.217 277.805 386.875Z" fill="#319795" fill-opacity="0.2"/>
<path d="M367.834 295.517C362.563 293.118 359.583 288.735 359.016 282.468C358.911 281.355 358.858 280.224 358.814 279.118C358.761 277.987 358.715 276.796 358.593 275.632C358.579 275.349 358.541 275.076 358.518 274.767C358.34 272.789 358.159 270.726 357.68 268.71C356.637 264.277 353.878 260.276 349.929 257.47C346.103 254.764 341.509 253.391 336.976 253.578C336.154 253.609 335.316 253.76 334.549 254.03C334.063 254.201 333.595 254.424 333.196 254.679C332.254 255.269 331.336 256.742 331.45 257.966C331.565 259.191 332.752 260.44 333.814 260.842C334.573 261.121 335.353 261.134 336.074 261.139C336.537 261.149 336.965 261.141 337.344 261.238C337.774 261.317 338.179 261.404 338.609 261.483C340.149 261.774 341.758 262.099 343.097 262.72C347.532 264.867 350.005 268.71 350.482 274.147C350.598 275.457 350.621 276.828 350.652 278.14C350.685 279.623 350.72 281.191 350.873 282.689C351.76 291.661 355.569 297.908 362.544 301.719C362.786 301.835 363.029 302.037 363.42 302.331C363.498 302.389 363.585 302.474 363.689 302.523C363.624 302.747 363.559 302.971 363.495 303.195C363.244 304.117 363.001 304.979 362.767 305.866C361.306 311.841 361.992 316.975 364.864 321.54C367.075 325.044 369.448 328.52 371.513 331.53C375.776 337.761 375.152 344.563 369.81 349.72C369.548 349.956 369.261 350.201 368.973 350.446C368.322 350.962 367.679 351.505 367.194 352.25C366.584 353.212 366.252 354.881 366.818 355.918C367.393 356.98 369.045 357.836 370.226 357.679C370.773 357.601 371.303 357.472 371.866 357.274C372.71 356.977 373.56 356.534 374.297 356.016C377.627 353.637 380.307 349.819 381.642 345.527C383.034 341.07 382.916 336.57 381.301 332.799C380.337 330.551 379.025 328.455 377.739 326.436C377.484 326.037 377.238 325.664 377.008 325.256C376.329 324.144 375.582 323.085 374.871 322.042C374.001 320.796 373.104 319.473 372.328 318.165C369.83 313.928 369.6 309.353 371.635 304.929C372.728 302.561 373.469 300.748 372.876 299.146C372.244 297.759 370.677 296.816 367.834 295.517Z" fill="#319795" fill-opacity="0.2"/>
<path d="M280.315 298.873C275.226 300.664 270.06 302.482 265.491 304.119C264.622 304.425 263.746 304.877 262.745 305.546C261.957 306.082 261.364 307.009 261.217 307.981C261.102 308.797 261.277 309.54 261.741 310.124C261.89 310.302 263.263 311.917 264.815 311.916C266.196 311.919 267.475 311.469 268.728 311.028L268.984 310.938C270.987 310.261 273.161 309.496 275.821 308.56C277.253 308.056 278.711 307.543 280.143 307.039C281.447 306.58 282.726 306.13 284.03 305.671L284.388 305.545C285.693 305.085 286.997 304.626 288.327 304.158L288.352 304.149C289.657 303.69 290.986 303.222 292.291 302.763C295.462 301.647 297.866 300.801 300.133 299.974C301.386 299.533 302.49 298.914 303.396 298.222C304.319 297.495 304.701 296.211 304.396 294.938C304.085 293.726 303.221 292.823 302.12 292.635C301.165 292.454 299.344 292.261 297.724 292.803C292.753 294.524 287.527 296.334 281.338 298.513L280.315 298.873Z" fill="#319795" fill-opacity="0.2"/>
<path d="M337.726 309.276C336.268 309.301 334.793 309.763 333.531 310.178C331.604 310.828 329.481 311.575 326.872 312.493C325.619 312.934 324.34 313.384 323.087 313.825L322.985 313.861C321.681 314.32 320.376 314.779 319.098 315.229L319.047 315.247C317.742 315.706 316.438 316.165 315.134 316.625L314.929 316.697C313.778 317.102 312.627 317.507 311.451 317.921L310.428 318.281C307.922 319.163 305.876 319.883 303.992 320.575C302.723 321.05 301.266 321.649 300.177 322.636C299.222 323.518 299.132 325.303 299.31 326.218C299.508 327.269 300.933 328.378 302.047 328.359C303.917 328.362 305.448 328.139 306.778 327.671C311.185 326.149 316.028 324.473 321.526 322.537C326.488 320.791 331.449 319.045 336.248 317.327L336.529 317.228C337.629 316.841 338.78 316.436 339.701 315.623C340.538 314.897 341.107 313.576 341.087 312.376C341.082 311.544 340.786 310.786 340.185 310.221C339.601 309.622 338.703 309.277 337.726 309.276Z" fill="#319795" fill-opacity="0.2"/>
<path d="M348.983 340.035C347.326 339.9 345.879 340.035 344.668 340.433C341.309 341.586 337.617 342.857 333.065 344.459C330.789 345.261 328.513 346.062 326.211 346.872C324.83 347.358 323.449 347.844 322.094 348.321C321.352 348.582 320.568 348.887 319.82 349.294C318.164 350.222 317.18 352.407 317.72 353.942C318.296 355.579 320.44 356.606 322.328 356.172C323.361 355.923 324.393 355.588 325.365 355.246L325.697 355.129C327.181 354.607 328.664 354.085 330.122 353.572C331.17 353.203 332.219 352.834 333.267 352.465L336.08 351.475C337.078 351.124 338.075 350.772 339.073 350.421C340.07 350.07 341.067 349.719 342.065 349.368C344.085 348.657 345.722 348.081 347.171 347.542L347.426 347.452C348.475 347.083 349.668 346.635 350.545 345.78C351.381 344.968 351.638 343.412 351.473 342.291C351.354 341.299 350.083 340.137 348.983 340.035Z" fill="#319795" fill-opacity="0.2"/>
<path d="M309.208 354.093C307.542 353.932 306.086 354.042 304.909 354.456C302.189 355.384 299.29 356.376 295.787 357.609C293.383 358.455 290.953 359.31 288.584 360.173L288.482 360.209C287.51 360.551 286.564 360.884 285.592 361.226C284.825 361.496 284.084 361.843 283.354 362.301C281.571 363.36 280.86 365.421 281.677 367.088C282.439 368.602 283.875 369.333 285.62 369.063C286.629 368.909 287.584 368.602 288.53 368.269C289.707 367.855 290.986 367.405 292.546 366.855C293.415 366.549 294.285 366.243 295.154 365.937L295.308 365.883C296.075 365.613 296.868 365.334 297.635 365.064L297.891 364.974C298.734 364.677 299.553 364.389 300.397 364.092L300.525 364.047C301.394 363.741 302.264 363.435 303.133 363.129C305.026 362.463 306.458 361.959 307.83 361.447L308.086 361.357C309.006 361.033 310.055 360.664 310.77 359.837C311.586 358.889 311.819 357.427 311.683 356.469C311.562 355.391 310.307 354.194 309.208 354.093Z" fill="#319795" fill-opacity="0.2"/>
<path d="M272.086 338.617C273.379 339.024 274.504 339.117 275.392 338.862C276.228 338.625 277.132 338.336 278.258 337.94C278.871 337.723 279.485 337.507 280.09 337.266C280.704 337.05 281.309 336.808 281.897 336.601L282.92 336.241L282.911 336.216C283.294 336.081 283.703 335.937 284.087 335.801C284.803 335.549 285.57 335.279 286.312 335.018C287.514 334.595 288.477 334.228 289.388 333.878C291.305 333.117 292.266 331.112 291.593 329.279C291.027 327.754 289.736 326.944 287.892 326.932C287.369 326.915 286.581 326.962 285.856 327.189C285.242 327.405 284.602 327.63 283.98 327.82L283.954 327.829C282.308 328.38 280.62 328.974 278.933 329.568C276.861 330.297 275.131 330.935 273.512 331.562C272.319 332.011 271.368 333.064 270.595 334.054C270.058 334.732 269.902 335.678 270.183 336.557C270.483 337.572 271.181 338.332 272.086 338.617Z" fill="#319795" fill-opacity="0.2"/>
<path d="M314.491 294.547C315.192 294.415 315.951 294.205 316.795 293.908C317 293.836 317.205 293.764 317.409 293.692C318.295 293.351 319.163 292.959 320.015 292.602L320.066 292.584L320.093 292.661L321.098 292.25C321.728 291.999 322.359 291.749 322.963 291.507C324.429 290.934 325.945 290.343 327.426 289.649C329.323 288.751 330.218 286.884 329.622 285.111C329.316 284.241 328.687 283.514 327.848 283.091C326.974 282.651 325.97 282.573 325.024 282.906C324.257 283.176 323.489 283.447 322.722 283.717C319.295 284.923 315.784 286.216 312.248 287.604C310.297 288.348 309.521 290.634 310.019 292.212C310.517 293.79 312.567 294.879 314.491 294.547Z" fill="#319795" fill-opacity="0.2"/>
<path d="M299.802 217.073C299.381 217.303 299.055 217.629 298.729 217.936L298.691 217.974C298.308 218.338 297.943 218.721 297.579 219.105C296.985 219.718 296.353 220.35 295.701 220.944C295.203 221.385 294.724 221.845 294.264 222.286C293.306 223.206 292.309 224.145 291.217 224.969C291.179 224.758 291.198 224.547 291.198 224.336C291.198 224.202 291.217 224.087 291.198 223.953C291.179 223.11 291.16 222.248 291.16 221.424C291.141 220.178 291.121 218.894 291.083 217.629C291.026 216.173 290.087 215.176 288.726 215.176C288.515 215.176 288.285 215.195 288.055 215.253C286.886 215.521 286.273 216.364 286.254 217.763C286.216 220.044 286.216 222.267 286.407 224.509C286.446 225.026 286.446 225.582 286.426 226.099C286.426 226.176 286.426 226.253 286.426 226.329L286.407 226.31C286.388 226.291 286.369 226.272 286.35 226.253C285.526 225.39 284.683 224.547 283.859 223.685C282.747 222.535 281.597 221.366 280.467 220.216C280.352 220.101 280.237 219.986 280.141 219.871C279.719 219.431 279.279 218.971 278.761 218.587C278.378 218.3 277.899 218.166 277.401 218.166C276.73 218.166 276.059 218.434 275.618 218.894C274.833 219.718 274.871 220.657 275.714 221.788C275.983 222.152 276.289 222.458 276.596 222.765C276.653 222.822 276.711 222.88 276.768 222.957C277.362 223.57 277.956 224.183 278.55 224.796C279.719 226.003 280.927 227.23 282.096 228.456C282.172 228.533 282.249 228.59 282.326 228.667C282.498 228.801 282.575 228.878 282.613 228.993C282.038 228.993 281.463 228.993 280.888 228.993C280.198 228.993 279.509 228.993 278.838 228.993C277.286 228.993 276.078 228.993 274.967 228.993H274.622C274.2 228.993 273.779 229.012 273.357 229.127C272.303 229.434 271.728 230.181 271.767 231.177C271.805 232.174 272.418 232.94 273.396 233.19C273.817 233.305 274.258 233.324 274.718 233.324H275.005C275.388 233.324 275.772 233.324 276.155 233.324C276.634 233.324 277.113 233.324 277.573 233.324C278.052 233.324 278.512 233.324 278.991 233.324C280.007 233.324 280.773 233.324 281.502 233.343H281.521C281.616 233.343 281.693 233.343 281.77 233.324C281.846 233.324 281.904 233.305 281.981 233.305C282.076 233.305 282.211 233.305 282.364 233.496C282.287 233.554 282.191 233.63 282.096 233.707C281.655 234.052 281.195 234.416 280.773 234.838C278.838 236.773 277.132 238.536 275.58 240.203C274.2 241.679 274.66 242.771 275.312 243.423C275.772 243.883 276.404 244.151 277.075 244.151C277.688 244.151 278.282 243.94 278.78 243.557C279.049 243.346 279.279 243.097 279.489 242.848C279.624 242.694 279.739 242.56 279.873 242.426C281.674 240.663 283.456 238.939 285.334 237.099L286.618 235.853C286.637 236.313 286.676 236.754 286.695 237.214C286.81 239.207 286.905 241.104 287.001 243.02C287.001 243.135 287.001 243.231 287.02 243.346C287.04 243.902 287.059 244.457 287.308 245.032C287.729 245.971 288.573 246.565 289.531 246.565C289.703 246.565 289.876 246.546 290.029 246.508C291.236 246.259 291.83 245.531 291.85 244.247C291.85 244.074 291.85 243.902 291.869 243.748C291.888 242.829 291.926 241.87 291.715 240.931C291.562 240.242 291.581 239.513 291.639 238.632C291.696 238.689 291.735 238.747 291.792 238.804C292.252 239.303 292.597 239.686 292.98 240.069C293.306 240.395 293.613 240.74 293.919 241.085C294.724 241.947 295.567 242.848 296.449 243.672C296.985 244.17 297.598 244.419 298.25 244.419C298.863 244.419 299.457 244.17 299.917 243.729C301.278 242.388 300.032 240.989 299.63 240.548C298.652 239.456 297.637 238.383 296.659 237.329C296.046 236.677 295.433 236.007 294.82 235.355C294.322 234.818 293.843 234.263 293.287 233.649C293.191 233.535 293.095 233.439 292.999 233.324C294.13 233.285 295.299 233.285 296.525 233.285C298.729 233.285 300.875 233.343 302.964 233.381L303.807 233.4C303.999 233.4 304.267 233.42 304.497 233.42C304.957 233.42 305.57 233.4 306.184 233.266C307.18 233.036 307.793 232.251 307.774 231.216C307.755 230.315 307.257 229.625 306.337 229.28C305.915 229.127 305.474 229.089 305.091 229.089C303.29 229.05 301.45 229.012 299.668 228.993C298.039 228.955 296.391 228.935 294.762 228.897H294.724C294.628 228.897 294.532 228.897 294.437 228.916C294.36 228.916 294.283 228.935 294.207 228.935C294.168 228.935 294.13 228.935 294.092 228.935C294.571 228.476 295.069 228.035 295.548 227.575C296.966 226.253 298.442 224.892 299.879 223.531C300.76 222.688 301.661 221.768 302.696 220.638C303.52 219.737 303.597 218.779 302.926 217.897C302.447 217.284 301.719 216.92 300.971 216.92C300.511 216.786 300.147 216.882 299.802 217.073Z" fill="#319795" fill-opacity="0.2"/>
<path d="M256.283 196.224C256.34 196.224 256.417 196.224 256.475 196.224C256.839 196.224 257.222 196.224 257.605 196.224C259.426 196.224 261.284 196.167 262.99 196.09C264.236 196.032 265.155 195.285 265.29 194.231C265.424 193.158 264.581 192.2 263.258 191.893C262.568 191.74 261.955 191.663 261.399 191.663C261.15 191.663 260.901 191.682 260.671 191.702C259.406 191.855 258.103 191.874 256.973 191.874C256.781 191.874 256.59 191.874 256.379 191.874C256.187 191.874 255.995 191.874 255.785 191.874C254.616 191.874 253.638 191.893 252.642 191.989C252.565 191.989 252.469 192.008 252.393 192.027C252.297 192.047 252.182 192.066 252.105 192.066C252.086 192.066 252.067 192.066 252.048 192.066C252.527 191.567 253.006 191.069 253.485 190.571C254.807 189.191 256.187 187.773 257.529 186.355C258.103 185.742 258.927 184.515 257.816 183.289C257.337 182.752 256.647 182.446 255.957 182.446C255.459 182.446 254.961 182.599 254.52 182.906C254.003 183.27 253.581 183.73 253.159 184.17C253.044 184.285 252.929 184.42 252.814 184.535C252.565 184.803 252.316 185.071 252.067 185.32C251.435 186.01 250.764 186.7 250.017 187.332C249.825 186.528 249.825 185.742 249.825 184.918C249.825 184.63 249.825 184.343 249.825 184.075C249.825 183.768 249.806 183.481 249.806 183.174C249.787 182.197 249.767 181.2 249.652 180.223C249.499 178.882 248.541 178 247.238 178C247.161 178 247.085 178 247.008 178C245.647 178.096 244.9 178.958 244.862 180.415C244.843 181.354 244.881 182.331 244.977 183.5C245.188 185.933 245.245 187.984 245.188 190.015C243.367 188.195 241.662 186.489 240.186 184.611C240.128 184.535 240.071 184.477 240.013 184.4C239.784 184.113 239.554 183.787 239.266 183.538C238.768 183.117 238.174 182.887 237.561 182.887C236.967 182.887 236.411 183.097 235.97 183.481C234.744 184.573 235.357 185.742 235.913 186.528C236.967 188.003 238.25 189.479 239.822 191.069C239.918 191.165 240.013 191.242 240.109 191.318C240.263 191.433 240.378 191.529 240.435 191.625C240.167 191.625 239.899 191.625 239.63 191.625C239.228 191.625 238.806 191.625 238.404 191.625C237.791 191.625 237.292 191.625 236.813 191.644C235.529 191.682 234.303 191.778 233.172 191.932C231.831 192.104 230.911 193.062 231.007 194.174C231.103 195.304 232.042 196.109 233.364 196.205C233.46 196.205 233.575 196.224 233.671 196.224C233.92 196.224 234.169 196.205 234.399 196.186C234.571 196.167 234.744 196.167 234.916 196.147L235.28 196.128C236.219 196.109 237.197 196.071 238.193 196.071C239.343 196.071 240.358 196.109 241.374 196.186C241.355 196.205 241.336 196.243 241.297 196.262C240.933 196.627 240.665 196.933 240.378 197.221C239.879 197.757 239.4 198.275 238.902 198.792C237.58 200.191 236.219 201.647 234.916 203.104C233.996 204.138 233.9 205.058 234.629 205.978C235.089 206.553 235.778 206.898 236.507 206.898C236.967 206.898 237.446 206.764 237.867 206.495C238.27 206.246 238.653 205.921 238.96 205.556C240.876 203.334 242.926 201.264 244.862 199.348C244.938 199.271 244.996 199.214 245.053 199.137C245.207 198.945 245.302 198.849 245.494 198.83V199.731C245.494 200.689 245.494 201.666 245.494 202.625C245.494 203.046 245.494 203.449 245.494 203.87C245.494 204.847 245.475 205.863 245.513 206.86C245.571 208.354 246.51 209.274 247.928 209.274H247.947C248.694 209.274 249.327 209.006 249.748 208.527C250.151 208.067 250.323 207.454 250.227 206.764C250.17 206.227 250.17 205.691 250.189 205.116C250.189 204.867 250.208 204.598 250.208 204.33V201.302C250.247 201.341 250.285 201.379 250.342 201.417C250.362 201.436 250.4 201.475 250.419 201.494L251.281 202.318C252.661 203.659 254.098 205.058 255.516 206.419C255.919 206.802 256.417 207.281 257.107 207.454C257.337 207.511 257.586 207.549 257.797 207.549C258.544 207.549 259.215 207.204 259.694 206.553C260.288 205.767 260.211 204.905 259.445 203.985C259.292 203.793 259.1 203.621 258.927 203.468C258.87 203.41 258.793 203.353 258.736 203.295C258.199 202.778 257.682 202.26 257.145 201.743C255.957 200.593 254.731 199.405 253.543 198.217C253.083 197.757 252.623 197.297 252.105 196.741C252.029 196.665 251.952 196.588 251.875 196.492C252.527 196.454 253.14 196.397 253.734 196.339C254.635 196.301 255.459 196.224 256.283 196.224Z" fill="#319795" fill-opacity="0.2"/>
<path d="M51.8739 96.9622C55.2719 99.1782 58.8011 101.46 61.9857 104.086C63.3317 105.203 64.7106 106.45 65.7448 108.026C66.3357 108.929 66.5655 109.881 66.4178 110.915C65.6791 116.25 65.4657 121.7 65.2523 126.969V127.101C65.0882 131.057 65.1538 135.144 65.4493 139.264C65.6299 141.792 65.9089 144.304 66.2865 146.766C66.4178 147.685 66.6147 148.736 67.1565 149.688C67.731 150.706 68.6338 151.297 69.6352 151.297C70.341 151.297 71.0469 151.001 71.6542 150.459C72.2452 149.934 72.6392 149.294 73.0495 148.506C73.6241 147.423 74.215 146.323 74.7895 145.223C75.955 143.023 77.1533 140.758 78.3681 138.526L78.4994 138.279C81.1094 133.453 83.8015 128.463 87.101 123.949L87.2487 123.752C87.8889 122.865 88.5455 121.963 89.4976 121.158C91.5659 124.031 93.6506 126.821 95.8831 129.661C96.7531 130.761 97.6231 131.894 98.4603 132.994C100.988 136.293 103.615 139.691 106.438 142.843L106.52 142.941C106.914 143.384 107.308 143.828 107.866 144.123C108.326 144.369 108.769 144.484 109.196 144.484C109.672 144.484 110.132 144.337 110.526 144.025C111.346 143.417 111.609 142.58 111.297 141.644C111.248 141.464 111.215 141.283 111.182 141.086C111.149 140.906 111.116 140.725 111.067 140.545C109.311 134.061 107.915 127.051 106.668 118.483C106.438 116.939 106.422 115.758 106.586 114.658C106.684 114.018 106.914 113.788 107.472 113.788C107.489 113.788 107.521 113.788 107.538 113.788C107.751 113.788 107.981 113.804 108.227 113.804C109.081 113.804 109.935 113.755 110.772 113.706C111.494 113.656 112.233 113.607 112.971 113.607C117.6 113.542 122.23 113.131 125.726 112.786L126.005 112.754C127.335 112.622 128.697 112.491 129.961 111.884C130.864 111.457 131.406 110.849 131.521 110.127C131.652 109.405 131.34 108.65 130.651 107.96C130.01 107.32 129.239 106.861 128.435 106.417C126.793 105.498 125.119 104.562 123.494 103.66C120.572 102.034 117.535 100.344 114.58 98.6694C114.219 98.4724 113.858 98.259 113.497 98.062C111.675 97.0442 109.787 95.9937 108.096 94.664C108.424 94.3193 108.753 93.9746 109.081 93.6299C109.984 92.6778 110.854 91.7914 111.757 90.9049C112.61 90.0842 113.497 89.2634 114.35 88.4755C116.451 86.5221 118.635 84.503 120.588 82.3198C121.852 80.9081 122.952 79.6113 123.674 77.9862C124.117 76.9684 124.134 75.9835 123.69 75.2284C123.247 74.4733 122.41 73.9973 121.327 73.8824C121.179 73.8659 121.031 73.8659 120.884 73.8659C120.506 73.8659 120.079 73.9152 119.603 74.0137C118.093 74.3256 116.681 74.7852 115.023 75.3597C113.136 75.9999 111.215 76.6565 109.36 77.3131C107.013 78.1339 104.567 78.9711 102.17 79.7754C99.9541 80.5141 97.5903 81.2364 95.1116 81.3513C95.0459 81.3513 94.9638 81.3513 94.8982 81.3513C93.8312 81.3513 93.2731 80.9737 92.9284 79.9888C92.6493 79.2009 92.3046 78.413 91.9927 77.6415C91.6808 76.9192 91.3689 76.1805 91.0899 75.4254C90.2363 73.0452 89.3663 70.5993 88.5455 68.2519C87.3636 64.8868 86.1325 61.4068 84.8849 58.0088C82.9807 52.8052 80.8304 47.2733 78.1054 42.004C77.5966 41.0355 77.1205 40.1819 76.2669 39.5417C75.7909 39.197 75.2656 39 74.7239 39C73.7554 39 72.9182 39.5909 72.5078 40.543C72.3437 40.937 72.2288 41.3966 72.1631 41.8891C72.0974 42.48 72.0154 43.071 71.9497 43.6619C71.6707 45.8944 71.3916 48.2089 71.1782 50.4907L71.1454 50.7533C70.7021 55.4645 70.2261 60.3398 69.8978 65.1494C69.668 68.3668 69.5203 71.6335 69.3561 74.7852C69.274 76.558 69.1756 78.3966 69.0771 80.1858C69.0278 81.0886 68.9457 81.9587 68.8637 82.8943C68.8308 83.1898 68.8144 83.5017 68.7816 83.7972C68.6503 83.7643 68.5353 83.7151 68.4368 83.6822C64.7434 82.4183 60.9679 81.5975 57.2088 81.2364C56.6343 81.1871 56.0762 81.1215 55.5016 81.0722C53.8273 80.9081 52.0873 80.7603 50.3965 80.5305C47.9507 80.2186 45.4884 80.0545 43.0589 80.0545C41.0234 80.0545 38.9715 80.1694 36.936 80.3828C36.4108 80.432 35.8526 80.5469 35.2781 80.7111C34.4737 80.9409 33.3575 81.4005 33.062 82.6973C32.7666 83.9941 33.5873 84.8806 34.2439 85.4387C34.8349 85.9476 35.4751 86.3743 36.1481 86.8011C37.9866 87.983 39.858 89.1813 41.6636 90.3468C44.7333 92.3166 47.9178 94.3521 51.0367 96.3712C51.2993 96.5846 51.5948 96.7816 51.8739 96.9622ZM39.2506 84.2896C39.1849 84.2404 39.1029 84.2075 39.0372 84.1747C38.9551 84.1255 38.873 84.0926 38.8074 84.0434C40.3176 83.9285 41.8278 83.8792 43.3215 83.8792C44.881 83.8792 46.4568 83.9449 48.0327 84.0598C49.3295 84.1583 50.6263 84.3224 51.9067 84.4702C53.1871 84.6179 54.5167 84.7821 55.8299 84.8806C60.1636 85.2089 64.5629 86.2102 69.2412 87.9666C69.3233 87.9994 69.3889 88.0159 69.471 88.0487C69.9635 88.2457 70.4887 88.4262 71.014 88.5247C71.1618 88.5411 71.3095 88.5576 71.4573 88.5576C72.1139 88.5576 72.672 88.3113 73.0003 87.8517C73.345 87.3757 73.4107 86.7355 73.1973 86.0625C73.0331 85.57 73.0331 85.1104 73.0331 84.5687C73.0659 80.9737 73.2958 77.3131 73.5256 73.7839C73.6405 72.0767 73.7554 70.3038 73.8375 68.5638C74.0673 64.0825 74.4613 59.5519 74.8552 55.1526C74.9537 54.0856 75.0358 53.0186 75.1343 51.9516C75.2492 50.5727 75.4297 49.1939 75.6267 47.7493C75.6924 47.3061 75.7416 46.8465 75.8073 46.3869C75.9879 46.6495 76.1028 46.945 76.2177 47.2404C76.2669 47.3718 76.3162 47.5031 76.3654 47.618C79.156 53.9707 81.8645 61.1113 84.9178 70.0576C86.0997 73.5212 87.4949 77.543 89.1857 81.417C90.2527 83.8628 92.0091 85.0119 94.7012 85.0447C94.7669 85.0447 94.849 85.0447 94.9146 85.0447C97.935 85.0447 100.726 84.2568 103.286 83.4032C105.962 82.5168 108.671 81.5811 111.281 80.6618C112.971 80.0709 114.711 79.48 116.435 78.889C116.566 78.8398 116.698 78.8069 116.829 78.7577C117.453 78.5443 118.093 78.3145 118.799 78.1831C118.027 79.3815 117.075 80.3335 116.041 81.3677C114.416 82.9764 112.709 84.5687 111.067 86.1117C110.214 86.9325 109.311 87.7696 108.441 88.5904L108.03 88.9844C106.914 90.0514 105.765 91.1512 104.665 92.2674C103.894 93.0553 103.516 93.8597 103.533 94.664C103.565 95.4684 103.992 96.2399 104.829 96.9786C106.225 98.2261 107.817 99.1454 109.36 100.032C114.104 102.773 119.16 105.695 124.347 108.486C124.643 108.65 124.922 108.814 125.283 109.011C124.889 109.109 124.577 109.175 124.265 109.192C122.985 109.257 121.688 109.356 120.44 109.454C119.34 109.536 118.208 109.618 117.092 109.684C115.401 109.766 113.694 109.815 112.036 109.865C110.526 109.897 108.966 109.947 107.439 110.012C103.927 110.176 102.613 111.572 102.4 115.331C102.285 117.268 102.613 119.205 102.925 121.076C103.007 121.552 103.089 122.045 103.155 122.537C103.631 125.689 104.255 128.873 104.879 131.943C105.125 133.191 105.388 134.471 105.617 135.735C101.563 130.679 97.5575 125.492 93.7491 120.305C93.6506 120.157 93.5357 120.009 93.4372 119.861C93.191 119.517 92.9448 119.172 92.6657 118.844C91.7465 117.744 90.7123 117.186 89.5797 117.186C88.6932 117.186 87.7904 117.53 86.8876 118.22C85.7057 119.106 84.8356 120.272 83.9821 121.404L83.9657 121.421C80.8468 125.607 78.3188 130.088 76.0535 134.29C75.1343 135.998 74.1986 137.738 73.3122 139.428C72.3929 141.152 71.4408 142.941 70.5052 144.681C70.4559 144.763 70.4231 144.845 70.3903 144.927C70.341 145.042 70.3082 145.141 70.259 145.207C70.2261 145.026 70.2097 144.829 70.1769 144.648C70.0784 143.943 69.9635 143.22 69.8814 142.514C69.1427 135.751 69.3233 128.89 69.5859 122.422C69.7172 119.073 70.0127 115.626 70.4888 111.867C70.8499 108.962 69.9963 106.516 67.7967 104.168C65.0882 101.296 61.8872 98.9977 59.0966 97.1263C52.4156 92.6942 45.751 88.3606 39.2506 84.2896Z" fill="#319795" fill-opacity="0.2"/>
<path d="M72.8493 431.891C40.995 376.671 1.83232 267.37 100.016 271.931C222.745 277.633 190.293 370.028 133.794 321.633C77.2948 273.238 114.296 182.054 174.586 182.316M174.586 182.316L164.508 221.394M174.586 182.316L137.348 166.923" stroke="#319795" stroke-opacity="0.2" stroke-width="7.47346"/>
<path d="M267.501 122.95C268.942 121.758 270.384 120.538 271.798 119.346C272.713 118.57 273.267 117.599 273.433 116.38V116.352L273.461 116.213L273.433 116.075V116.047C273.212 114.245 272.158 112.997 270.467 112.554C270.023 112.443 269.58 112.388 269.136 112.388C267.861 112.388 266.669 112.887 265.449 113.912C260.542 118.098 255.552 122.312 250.756 126.387C246.237 130.213 241.58 134.15 236.978 138.059C234.289 140.36 231.628 142.744 229.049 145.045L228.911 145.156C228.218 145.766 227.552 146.376 226.859 146.985C224.337 149.231 225.196 151.227 225.917 152.225C227.109 153.833 228.467 154.166 229.382 154.166C230.131 154.166 230.907 153.944 231.655 153.5C232.459 153.029 233.18 152.447 233.707 151.975C235.786 150.146 237.893 148.316 239.889 146.542L239.917 146.514C243.604 143.271 247.402 139.944 251.2 136.7C256.522 132.154 261.928 127.607 267.168 123.199L267.501 122.95Z" fill="#319795" fill-opacity="0.2"/>
<path d="M238.835 118.764H239.002C240.166 118.681 241.081 118.32 241.857 117.683C249.065 111.611 254.942 106.649 260.348 102.047C262.012 100.633 262.344 98.8035 261.235 97.1678C260.348 95.8649 259.073 95.1441 257.659 95.1441C257.216 95.1441 256.772 95.2273 256.301 95.3659C255.524 95.6154 254.693 96.0867 253.889 96.752C249.786 100.19 245.655 103.655 241.663 107.037C239.833 108.59 237.976 110.142 236.146 111.694C234.649 112.942 234.178 114.578 234.843 116.186C235.481 117.766 236.895 118.681 238.835 118.764Z" fill="#319795" fill-opacity="0.2"/>
<path d="M283.108 123.976C282.887 123.948 282.637 123.92 282.415 123.92C281.196 123.92 280.031 124.391 278.867 125.334C273.295 129.825 268.637 133.595 263.897 137.477C261.928 139.084 262.012 140.776 262.455 141.884C262.926 143.077 263.98 144.546 266.503 144.657H266.614C267.75 144.629 268.776 144.213 269.746 143.437C272.075 141.552 274.376 139.667 276.705 137.782L276.899 137.615C279.671 135.37 282.443 133.124 285.215 130.851C286.629 129.714 287.128 128.162 286.602 126.609C286.186 125.584 285.299 124.281 283.108 123.976Z" fill="#319795" fill-opacity="0.2"/>
<path d="M385.765 0H385.738C382.688 0 379.389 0.138613 375.314 0.41584C368.716 0.887124 362.839 2.10692 357.294 4.1584C352.581 5.90492 348.09 8.23362 343.766 10.4792C341.88 11.4494 339.94 12.4752 337.999 13.4178C337.112 13.8613 336.225 14.2772 335.338 14.693C330.57 16.9663 325.635 19.3227 321.449 22.8989C312.938 30.1622 305.702 37.2038 299.326 44.4394C299.16 44.6334 298.994 44.8275 298.827 45.0216C297.247 46.8513 295.889 48.4037 293.865 48.4037C293.338 48.4037 292.756 48.2928 292.146 48.0988C291.98 48.0433 291.786 48.0156 291.564 48.0156C291.37 48.0156 291.204 48.0433 291.065 48.071C291.009 48.071 290.926 48.0988 290.899 48.0988C290.205 48.1265 289.54 48.1542 288.847 48.2097C282.36 48.5146 275.651 48.8473 269.109 50.1502C261.734 51.6473 253.307 53.6987 246.293 59.4096C241.608 63.2076 237.2 67.5323 232.792 72.6056C230.214 75.5719 227.303 78.9263 225.667 83.1956C224.614 85.9402 224.808 88.158 226.249 89.9877C227.469 91.5679 229.216 92.3995 231.239 92.3995C231.822 92.3995 232.432 92.3164 233.014 92.1778C240.055 90.5421 247.291 89.2114 254.277 87.9362C256.218 87.5758 258.241 87.2154 260.21 86.855C260.736 86.7441 261.152 86.7164 261.513 86.7164C262.289 86.7164 263.01 86.9382 263.897 87.9916C268.942 94.0075 274.93 99.3856 280.225 104.154C284.855 108.312 288.986 113.136 292.978 117.793C294.946 120.094 296.998 122.479 299.077 124.752C299.409 125.112 299.576 125.528 299.382 126.443C298.855 128.633 298.356 130.851 297.857 132.985C296.859 137.338 295.805 141.857 294.641 146.237C294.419 147.096 294.142 147.983 293.865 148.843C293.144 151.227 292.396 153.667 292.285 156.3C292.202 158.102 292.784 159.766 293.92 160.93C295.002 162.067 296.526 162.676 298.19 162.676C298.55 162.676 298.91 162.649 299.271 162.593C300.962 162.344 302.598 161.762 304.122 160.902C311.081 157.049 316.875 151.754 322.696 146.209C327.797 141.358 331.568 135.564 333.813 129.021C337.306 118.958 339.191 108.007 339.718 94.5619C339.718 94.3679 339.718 94.1738 339.718 93.9797C339.69 93.2867 339.718 93.0926 340.079 92.8154C345.346 88.851 350.086 84.5263 354.051 80.8669C354.855 80.1184 355.686 79.3422 356.49 78.6214C361.758 73.7977 367.219 68.7799 370.962 62.265C375.369 54.5581 379.777 46.9344 383.52 40.5028C389.563 30.0791 390.977 18.6296 391.92 7.79006V7.73462L391.948 7.40194C391.948 7.18016 391.975 6.93066 391.975 6.70888C392.114 4.46334 391.67 2.82771 390.617 1.69108C389.563 0.554453 387.983 0 385.765 0ZM287.378 57.0809C284.966 59.2155 282.693 61.2393 280.53 63.4017C277.952 65.9799 275.124 68.3917 272.408 70.7204C269.497 73.2155 266.503 75.766 263.758 78.5659C263.037 79.3145 262.067 79.4531 261.014 79.6194L260.93 79.6471C251.671 81.1719 242.356 82.9184 233.18 84.8867C234.4 82.1422 236.368 79.8412 238.281 77.6234C242.966 72.2175 247.208 68.0314 251.643 64.4829C256.966 60.2413 263.231 58.4116 270.994 56.9423C277.01 55.8334 283.053 55.2512 289.512 55.168C288.792 55.8334 288.071 56.471 287.378 57.0809ZM343.017 18.9346C344.486 18.2138 345.956 17.4653 347.37 16.7445C356.047 12.3089 365.001 7.73462 375.259 7.51283C377.033 7.48511 378.835 7.31878 380.581 7.15244C381.746 7.04155 382.965 6.93066 384.158 6.87521C384.241 6.87521 384.296 6.87521 384.379 6.87521C384.767 6.87521 384.851 6.95838 384.851 6.95838C384.878 6.9861 384.961 7.12472 384.934 7.73462C384.518 14.2494 383.742 19.5167 382.494 24.2573C380.997 30.0236 378.807 34.986 375.813 39.477C374.898 40.8354 374.039 42.3602 372.985 44.3839C372.847 44.6612 372.764 44.7721 372.708 44.8275C372.653 44.7998 372.542 44.7443 372.292 44.5226C368.771 41.4176 365.195 38.285 361.702 35.2632L359.179 33.0454C355.326 29.6909 351.473 26.3365 347.564 22.8989L343.017 18.9346ZM311.912 119.013C316.819 114.356 321.698 109.504 326.439 104.792L326.494 104.736C328.49 102.74 330.57 100.689 332.621 98.6649C331.484 110.835 329.987 121.786 324.859 131.849C323.861 133.789 322.17 136.562 317.817 140.748C313.132 145.239 308.003 149.869 302.154 153.445C301.378 153.916 300.657 154.36 299.77 154.609C302.071 146.154 304.261 138.17 305.841 129.881C306.59 125.667 308.53 122.229 311.912 119.013ZM324.582 96.9183C318.483 102.712 312.162 108.728 306.34 115.021V115.049C304.788 116.74 303.762 117.849 303.152 117.849C302.542 117.849 301.544 116.601 300.269 114.993C294.835 108.146 288.459 102.075 282.277 96.1975C280.142 94.1738 277.952 92.0946 275.817 90.0154C275.512 89.7382 275.235 89.4332 274.93 89.156L274.875 89.1005C273.433 87.6867 271.936 86.2451 270.578 84.7204C269.996 84.0828 269.358 83.362 269.358 83.0293C269.386 82.7243 270.107 82.059 270.744 81.4768C272.103 80.257 273.516 79.0372 274.875 77.8729C276.705 76.2927 278.617 74.6571 280.392 72.966C283.136 70.3323 285.992 67.6987 288.736 65.1482C294.974 59.3819 301.405 53.4215 307.227 46.9621C314.019 39.4493 321.726 30.9662 331.235 25.0335C333.481 23.6474 334.95 22.7048 336.003 22.7048C337.057 22.7048 338.082 23.5642 340.522 25.6989L340.744 25.8929C346.981 31.382 353.358 36.8988 359.512 42.2216L359.678 42.3602C362.506 44.7998 365.417 47.3503 368.3 49.8176C368.633 50.0948 368.938 50.3997 369.27 50.7047C369.298 50.7324 369.354 50.7879 369.381 50.8156C369.381 50.8156 369.381 50.8433 369.354 50.8433C369.215 51.1205 369.104 51.37 368.993 51.5918C364.668 59.4651 359.318 66.2294 352.609 72.3006C349.227 75.3778 345.623 78.3719 342.158 81.255C337.694 84.9699 333.12 88.7956 328.851 92.8708C327.409 94.2292 325.968 95.6154 324.582 96.9183Z" fill="#319795" fill-opacity="0.2"/>
<path d="M346.011 52.7562C344.875 49.5958 342.574 46.9621 338.997 44.7443C335.865 42.8037 332.344 41.8335 328.463 41.8335C328.075 41.8335 327.714 41.8335 327.326 41.8612C327.104 41.8612 326.855 41.8612 326.633 41.8612C325.081 41.8612 323.473 41.8889 321.837 42.6651C317.512 44.7166 314.102 47.7107 311.691 51.5364C308.863 56.0552 308.253 60.269 309.861 64.1225C311.302 67.5601 313.742 70.665 316.708 72.8274C319.952 75.2115 323.722 76.459 327.603 76.459C329.211 76.459 330.847 76.2372 332.483 75.8214C336.142 74.8511 338.997 73.4927 341.187 71.6353C343.71 69.5006 345.401 66.6175 346.205 63.1244C347.092 59.0492 347.037 55.6393 346.011 52.7562ZM338.609 58.2453C338.665 62.8472 336.918 65.8967 333.231 67.5878C331.096 68.5581 329.211 69.0294 327.437 69.0294C325.33 69.0294 323.445 68.364 321.698 66.9779C318.649 64.5937 316.736 62.2373 317.318 58.5779C317.817 55.3344 322.447 50.4829 325.718 49.7621C326.855 49.5126 327.936 49.4017 328.934 49.4017C331.263 49.4017 333.342 50.0394 335.283 51.37C337.861 53.1166 338.914 55.2789 338.609 58.1344V58.2453Z" fill="#319795" fill-opacity="0.2"/>
</svg>
